<svg width="113" height="113" viewBox="0 0 113 113" fill="none" xmlns="http://www.w3.org/2000/svg">
<circle cx="56.5" cy="56.5" r="56.5" fill="#BD9A60"/>
<g clip-path="url(#clip0_669_3908)">
<path fill-rule="evenodd" clip-rule="evenodd" d="M35.4623 67.1463C35.2384 67.1329 35.0267 67.0397 34.8656 66.8835C34.7045 66.7273 34.6048 66.5184 34.5844 66.2949C34.564 66.0713 34.6244 65.8479 34.7546 65.6651C34.8848 65.4822 35.0761 65.3522 35.2939 65.2986C36.3706 65.0322 37.141 63.2295 37.8207 61.6393C38.5849 59.8517 39.2444 58.3083 40.58 57.9809C41.2733 57.8089 41.991 58.023 42.7103 58.6119C44.9466 60.4445 44.1165 64.1041 43.4316 66.1064H47.8216C48.302 66.1061 48.7718 66.2483 49.1715 66.515C49.5712 66.7818 49.8829 67.1612 50.0673 67.6052C50.2516 68.0493 50.3004 68.538 50.2072 69.0097C50.1141 69.4815 49.8834 69.915 49.5442 70.2555C49.8369 70.7309 49.9572 71.2927 49.8848 71.8463C49.8125 72.4 49.5519 72.9119 49.1469 73.296C49.4423 73.8019 49.5452 74.3976 49.4366 74.9733C49.328 75.5491 49.0153 76.0662 48.556 76.4295C48.7407 76.8006 48.8276 77.2126 48.8085 77.6267C48.7894 78.0408 48.665 78.4431 48.447 78.7956C48.229 79.148 47.9247 79.4389 47.5628 79.6406C47.201 79.8423 46.7937 79.9481 46.3796 79.9481H37.7592C36.9279 79.9242 36.1012 79.8165 35.2915 79.6266C35.0735 79.5729 34.882 79.4427 34.7518 79.2596C34.6216 79.0766 34.5614 78.8528 34.5821 78.6291C34.6028 78.4054 34.703 78.1965 34.8645 78.0405C35.0261 77.8844 35.2382 77.7916 35.4623 77.7788V67.1463Z" fill="white"/>
<path fill-rule="evenodd" clip-rule="evenodd" d="M35.5166 80.288H27.9375C27.6889 80.288 27.4504 80.1892 27.2746 80.0132C27.0988 79.8372 27 79.5986 27 79.3497V65.2473C27 64.9985 27.0988 64.7598 27.2746 64.5838C27.4504 64.4079 27.6889 64.309 27.9375 64.309H35.5166C35.7653 64.309 36.0037 64.4079 36.1795 64.5838C36.3554 64.7598 36.4541 64.9985 36.4541 65.2473V79.3497C36.4541 79.4729 36.4299 79.5949 36.3828 79.7088C36.3357 79.8226 36.2666 79.9261 36.1795 80.0132C36.0925 80.1003 35.9891 80.1694 35.8754 80.2166C35.7617 80.2637 35.6397 80.288 35.5166 80.288Z" fill="white"/>
<path fill-rule="evenodd" clip-rule="evenodd" d="M57.0027 63.6587C54.706 63.6586 52.4609 62.977 50.5513 61.7C48.6417 60.4229 47.1534 58.6079 46.2745 56.4842C45.3956 54.3606 45.1657 52.0239 45.6138 49.7695C46.0618 47.5151 47.1678 45.4443 48.7918 43.8189C50.4158 42.1936 52.4849 41.0867 54.7374 40.6383C56.9899 40.1899 59.3248 40.4201 61.4466 41.2997C63.5684 42.1793 65.382 43.6689 66.6579 45.5801C67.9339 47.4913 68.6149 49.7383 68.6149 52.0368C68.6115 55.1181 67.387 58.0722 65.21 60.251C63.033 62.4298 60.0814 63.6553 57.0027 63.6587ZM55.28 56.287C55.1569 56.2871 55.0349 56.2629 54.9211 56.2157C54.8073 56.1686 54.7039 56.0995 54.6168 56.0124L51.4436 52.8365C51.3565 52.7493 51.2875 52.6459 51.2403 52.532C51.1932 52.4182 51.1689 52.2961 51.1689 52.1729C51.1689 52.0496 51.1932 51.9276 51.2403 51.8137C51.2874 51.6998 51.3565 51.5964 51.4436 51.5092C51.5306 51.4221 51.634 51.3529 51.7478 51.3058C51.8615 51.2586 51.9835 51.2343 52.1066 51.2343C52.2298 51.2343 52.3517 51.2586 52.4655 51.3057C52.5793 51.3529 52.6826 51.422 52.7697 51.5092L55.28 54.0219L61.2355 48.061C61.4126 47.8914 61.6489 47.7979 61.894 47.8006C62.1391 47.8033 62.3734 47.9019 62.5467 48.0753C62.72 48.2488 62.8185 48.4833 62.8212 48.7285C62.8239 48.9738 62.7305 49.2104 62.561 49.3876L55.9422 56.0122C55.8553 56.0995 55.752 56.1687 55.6383 56.2158C55.5246 56.263 55.4026 56.2871 55.2795 56.2869L55.28 56.287Z" fill="white"/>
<path fill-rule="evenodd" clip-rule="evenodd" d="M57.25 37.4408C57.0014 37.4408 56.7629 37.3419 56.5871 37.166C56.4113 36.99 56.3125 36.7513 56.3125 36.5025V33.9383C56.3125 33.6894 56.4113 33.4508 56.5871 33.2748C56.7629 33.0989 57.0014 33 57.25 33C57.4986 33 57.7371 33.0989 57.9129 33.2748C58.0887 33.4508 58.1875 33.6894 58.1875 33.9383V36.5025C58.1875 36.7513 58.0887 36.99 57.9129 37.166C57.7371 37.3419 57.4986 37.4408 57.25 37.4408Z" fill="white"/>
<path fill-rule="evenodd" clip-rule="evenodd" d="M64.9835 39.6501C64.819 39.65 64.6575 39.6065 64.5151 39.5241C64.3727 39.4417 64.2545 39.3232 64.1723 39.1806C64.0901 39.038 64.0468 38.8762 64.0469 38.7116C64.0469 38.547 64.0902 38.3853 64.1725 38.2427L65.4532 36.0221C65.5775 35.8066 65.7823 35.6493 66.0225 35.5849C66.2627 35.5205 66.5186 35.5542 66.734 35.6786C66.9493 35.803 67.1065 36.008 67.1708 36.2483C67.2352 36.4887 67.2015 36.7449 67.0772 36.9604L65.7965 39.181C65.7142 39.3238 65.5957 39.4424 65.4529 39.5248C65.3102 39.6071 65.1483 39.6504 64.9835 39.6501Z" fill="white"/>
<path fill-rule="evenodd" clip-rule="evenodd" d="M70.5713 45.4297C70.3648 45.4299 70.1641 45.3619 70.0001 45.2362C69.8362 45.1105 69.7184 44.9342 69.6649 44.7346C69.6113 44.535 69.6251 44.3234 69.7041 44.1324C69.7831 43.9415 69.9229 43.782 70.1017 43.6787L72.3204 42.3963C72.5358 42.2719 72.7917 42.2382 73.0319 42.3026C73.2721 42.367 73.4769 42.5243 73.6012 42.7399C73.7255 42.9554 73.7592 43.2115 73.6948 43.4519C73.6305 43.6923 73.4733 43.8972 73.258 44.0217L71.0392 45.3042C70.897 45.3863 70.7356 45.4296 70.5714 45.4297H70.5713Z" fill="white"/>
<path fill-rule="evenodd" clip-rule="evenodd" d="M75.0775 53.2309H72.5156C72.267 53.2309 72.0285 53.1321 71.8527 52.9561C71.6769 52.7802 71.5781 52.5415 71.5781 52.2927C71.5781 52.0438 71.6769 51.8051 71.8527 51.6292C72.0285 51.4532 72.267 51.3544 72.5156 51.3544H75.0775C75.3261 51.3544 75.5646 51.4532 75.7404 51.6292C75.9162 51.8051 76.015 52.0438 76.015 52.2927C76.015 52.5415 75.9162 52.7802 75.7404 52.9561C75.5646 53.1321 75.3261 53.2309 75.0775 53.2309Z" fill="white"/>
<path fill-rule="evenodd" clip-rule="evenodd" d="M41.4837 52.7185H38.9219C38.6732 52.7185 38.4348 52.6197 38.259 52.4437C38.0831 52.2677 37.9844 52.0291 37.9844 51.7802C37.9844 51.5314 38.0831 51.2927 38.259 51.1168C38.4348 50.9408 38.6732 50.8419 38.9219 50.8419H41.4837C41.7324 50.8419 41.9708 50.9408 42.1466 51.1168C42.3225 51.2927 42.4212 51.5314 42.4212 51.7802C42.4212 52.0291 42.3225 52.2677 42.1466 52.4437C41.9708 52.6197 41.7324 52.7185 41.4837 52.7185Z" fill="white"/>
<path fill-rule="evenodd" clip-rule="evenodd" d="M43.6866 44.9858C43.5223 44.9858 43.3609 44.9422 43.2188 44.8596L41.0001 43.5783C40.7847 43.4539 40.6276 43.249 40.5632 43.0086C40.4988 42.7682 40.5325 42.5121 40.6568 42.2965C40.7812 42.081 40.9859 41.9237 41.2261 41.8593C41.4663 41.7949 41.7222 41.8286 41.9376 41.953L44.1563 43.2354C44.3351 43.3387 44.4749 43.4982 44.5539 43.6891C44.6329 43.88 44.6467 44.0917 44.5932 44.2913C44.5397 44.4909 44.4218 44.6672 44.2579 44.7929C44.094 44.9186 43.8932 44.9866 43.6867 44.9864L43.6866 44.9858Z" fill="white"/>
<path fill-rule="evenodd" clip-rule="evenodd" d="M49.4613 39.3941C49.2966 39.3942 49.1347 39.351 48.992 39.2686C48.8493 39.1863 48.7308 39.0677 48.6484 38.9249L47.3678 36.7042C47.2435 36.4887 47.2098 36.2326 47.2741 35.9922C47.3385 35.7518 47.4957 35.5468 47.711 35.4224C47.9264 35.298 48.1823 35.2643 48.4225 35.3287C48.6627 35.3931 48.8675 35.5504 48.9918 35.7659L50.2728 37.9866C50.355 38.1293 50.3983 38.291 50.3984 38.4557C50.3984 38.6204 50.3551 38.7822 50.2728 38.9248C50.1906 39.0674 50.0723 39.1859 49.9298 39.2683C49.7873 39.3506 49.6257 39.394 49.4611 39.3941H49.4613Z" fill="white"/>
<path fill-rule="evenodd" clip-rule="evenodd" d="M78.5411 67.1465C78.765 67.1332 78.9767 67.04 79.1378 66.8837C79.2989 66.7275 79.3987 66.5187 79.4191 66.2951C79.4394 66.0716 79.379 65.8481 79.2488 65.6653C79.1187 65.4825 78.9273 65.3525 78.7095 65.2988C77.6328 65.0324 76.8624 63.2298 76.1827 61.6395C75.4185 59.8519 74.759 58.3086 73.4233 57.9811C72.73 57.8092 72.0123 58.0232 71.293 58.6121C69.0567 60.4447 69.8868 64.1044 70.5717 66.1067H66.1818C65.7013 66.1063 65.2316 66.2485 64.8318 66.5153C64.4321 66.7821 64.1204 67.1614 63.936 67.6055C63.7517 68.0495 63.703 68.5383 63.7961 69.01C63.8892 69.4817 64.1199 69.9152 64.4591 70.2558C64.1664 70.7312 64.0461 71.2929 64.1185 71.8466C64.1908 72.4003 64.4514 72.9122 64.8564 73.2963C64.561 73.8022 64.4581 74.3978 64.5667 74.9736C64.6753 75.5493 64.988 76.0665 65.4473 76.4298C65.2627 76.8008 65.1757 77.2129 65.1948 77.627C65.2139 78.041 65.3383 78.4434 65.5563 78.7958C65.7743 79.1482 66.0786 79.4391 66.4405 79.6408C66.8023 79.8425 67.2096 79.9484 67.6238 79.9484H76.2442C77.0755 79.9244 77.9023 79.8167 78.712 79.6269C78.9301 79.5733 79.1218 79.4431 79.2521 79.26C79.3825 79.0769 79.4428 78.853 79.4221 78.6292C79.4014 78.4053 79.3011 78.1963 79.1394 78.0402C78.9777 77.8842 78.7654 77.7914 78.5411 77.7788V67.1465Z" fill="white"/>
<path fill-rule="evenodd" clip-rule="evenodd" d="M78.4844 80.2887H86.0636C86.3123 80.2887 86.5507 80.1899 86.7265 80.0139C86.9024 79.8379 87.0011 79.5993 87.0011 79.3504V65.2475C87.0011 64.9987 86.9024 64.76 86.7265 64.5841C86.5507 64.4081 86.3123 64.3093 86.0636 64.3093H78.4844C78.2357 64.3093 77.9973 64.4081 77.8215 64.5841C77.6457 64.76 77.5469 64.9987 77.5469 65.2475V79.3504C77.5469 79.5993 77.6457 79.8379 77.8215 80.0139C77.9973 80.1899 78.2357 80.2887 78.4844 80.2887Z" fill="white"/>
</g>
<defs>
<clipPath id="clip0_669_3908">
<rect width="60" height="47.2881" fill="white" transform="translate(27 33)"/>
</clipPath>
</defs>
</svg>
