<svg width="113" height="113" viewBox="0 0 113 113" fill="none" xmlns="http://www.w3.org/2000/svg">
<circle cx="56.5" cy="56.5" r="56.5" fill="#264642"/>
<g clip-path="url(#clip0_669_3907)">
<path fill-rule="evenodd" clip-rule="evenodd" d="M74.1156 65.9385C67.0129 65.9385 61.2344 60.16 61.2344 53.0575C61.2344 45.9548 67.0129 40.1764 74.1156 40.1764C81.2182 40.1764 86.9967 45.9547 86.9967 53.0575C86.9967 60.1601 81.2182 65.9385 74.1156 65.9385ZM69.4736 60.9623C69.3152 60.9623 69.1582 60.913 69.0258 60.8169C68.807 60.658 68.6889 60.3951 68.7155 60.126L69.1793 55.4154L66.0352 51.8772C65.8557 51.6752 65.7967 51.3931 65.8803 51.1358C65.9638 50.8787 66.1773 50.6851 66.4414 50.6272L71.065 49.6127L73.4583 45.5293C73.5951 45.2961 73.8452 45.1528 74.1155 45.1528C74.3858 45.1528 74.6359 45.2962 74.7725 45.5293L77.1662 49.6131L81.7896 50.6274C82.0538 50.6852 82.2672 50.8788 82.3508 51.1359C82.4345 51.393 82.3754 51.6753 82.1959 51.8773L79.0515 55.4158L79.5156 60.126C79.5422 60.395 79.4241 60.658 79.2054 60.8169C78.9866 60.9758 78.7002 61.0069 78.4523 60.8984L74.1154 59.0015L69.7788 60.8984C69.681 60.9412 69.577 60.9623 69.4736 60.9623ZM74.1152 57.4083C74.2193 57.4083 74.3231 57.4297 74.4204 57.4722L77.8718 58.9819L77.5026 55.2334C77.4817 55.0219 77.55 54.8115 77.6911 54.6526L80.1935 51.8367L76.5143 51.0296C76.3068 50.9842 76.1277 50.854 76.0202 50.6708L74.1153 47.4208L72.2108 50.6704C72.1034 50.8537 71.9244 50.9838 71.717 51.0293L68.0372 51.8368L70.5395 54.6525C70.6805 54.8114 70.7489 55.0218 70.728 55.2333L70.3589 58.9819L73.8102 57.4724C73.9075 57.4297 74.0113 57.4083 74.1152 57.4083Z" fill="white"/>
<path fill-rule="evenodd" clip-rule="evenodd" d="M43.3315 59.2364C41.6487 59.2364 39.9666 58.7717 38.4649 57.8421C35.0822 55.748 33.2201 51.7723 33.2031 46.7502C33.4233 46.84 33.6596 46.8961 33.9047 46.9132C33.9943 46.9194 33.9746 46.9189 34.0658 46.9189C34.8841 46.9189 35.6407 46.481 36.0479 45.7706L37.8753 42.5843C38.0407 42.5891 38.2061 42.5944 38.3715 42.5996C39.1046 42.6226 39.8377 42.645 40.5712 42.645C41.781 42.645 43.0423 42.5894 44.2266 42.3253C44.2986 42.3093 44.3927 42.3073 44.4659 42.3073C45.78 42.3073 48.0455 43.2104 49.3998 43.8442C49.5902 44.1001 49.7841 44.415 49.9394 44.6548C50.1643 45.0019 50.3982 45.3638 50.599 45.7252C51.0002 46.4473 51.76 46.8978 52.5863 46.9006C52.8944 46.9006 53.1926 46.84 53.4664 46.7275C53.4657 51.7348 51.6159 55.7099 48.2383 57.8192C46.7259 58.7637 45.0283 59.2362 43.3315 59.2364Z" fill="white"/>
<path fill-rule="evenodd" clip-rule="evenodd" d="M34.0606 45.3955C34.0424 45.3955 34.0241 45.3948 34.0057 45.3936C33.7139 45.3725 33.4598 45.1862 33.3521 44.9141C33.2653 44.695 31.2498 39.5088 33.0736 36.0078C33.8259 34.5635 35.1027 33.6184 36.8686 33.1983C39.4758 32.5784 41.6285 32.2769 43.45 32.2769C45.2838 32.2769 46.4149 32.5897 47.2407 32.8181C47.7996 32.9727 48.2125 33.0843 48.6057 33.0361L52.9507 32.505C53.3493 32.4564 53.7171 32.7254 53.7917 33.1197C53.8552 33.4555 55.3224 41.3853 53.2522 44.9945C53.1164 45.2314 52.8642 45.3773 52.5914 45.3773C52.5896 45.3773 52.5932 45.3773 52.5914 45.3773C52.3167 45.3755 52.0589 45.2257 51.9255 44.9856C51.6227 44.4402 50.661 42.9398 50.3594 42.6166C48.605 41.7627 46.0385 40.7839 44.4607 40.7839C44.244 40.7839 44.0519 40.8024 43.8898 40.8385C43.024 41.0317 41.968 41.1217 40.566 41.1217C39.8449 41.1217 39.1175 41.099 38.4141 41.077C37.9208 41.0615 37.448 41.0467 36.9996 41.0403L34.7213 45.0128C34.5848 45.2506 34.3321 45.3955 34.0606 45.3955Z" fill="white"/>
<path fill-rule="evenodd" clip-rule="evenodd" d="M58.9163 81.7231H27.7618C27.3411 81.7231 27 81.3821 27 80.9614V78.0074H59.6782V80.9614C59.6782 81.382 59.3371 81.7231 58.9163 81.7231ZM27 76.4839V71.6289C27 67.6952 29.2621 64.2803 32.5535 62.6156V76.4839H27ZM34.0769 61.9956C35.03 61.6964 36.0434 61.535 37.0939 61.535H38.817C39.1518 62.1675 39.3789 62.5912 39.4192 62.6643L42.5773 68.3965V76.4839H34.077L34.0769 61.9956ZM40.5158 61.535H46.1609C46.0282 61.7535 45.9449 61.8928 45.9248 61.9292L43.3392 66.622L40.7536 61.9292C40.7318 61.8896 40.648 61.7505 40.5158 61.535ZM47.8689 61.535H49.5843C50.6348 61.535 51.6483 61.6964 52.6013 61.9956V76.4839H44.1008V68.3968L47.2593 62.6643C47.2961 62.5974 47.5239 62.1773 47.8689 61.535ZM54.1247 62.6155C57.4161 64.2802 59.6782 67.6952 59.6782 71.6289V76.4839H54.1247V62.6155Z" fill="white"/>
<path fill-rule="evenodd" clip-rule="evenodd" d="M67.1914 79.0603C67.0698 79.0603 66.948 79.0312 66.8366 78.9725C66.5864 78.8409 66.4297 78.5813 66.4297 78.2985V65.2307C68.6567 66.643 71.2956 67.4619 74.1226 67.4619C76.9495 67.4619 79.5883 66.643 81.8155 65.2307V78.2985C81.8155 78.5806 81.6596 78.8397 81.4102 78.9717C81.1611 79.1038 80.8592 79.0873 80.6258 78.9287L74.0888 74.4879L67.6227 78.9265C67.4932 79.0152 67.3426 79.0603 67.1914 79.0603Z" fill="white"/>
</g>
<defs>
<clipPath id="clip0_669_3907">
<rect width="60" height="60" fill="white" transform="translate(27 27)"/>
</clipPath>
</defs>
</svg>
