<svg width="125" height="125" viewBox="0 0 125 125" fill="none" xmlns="http://www.w3.org/2000/svg">
<path fill-rule="evenodd" clip-rule="evenodd" d="M51.7775 110.354C27.2461 110.354 7.32812 90.4364 7.32812 65.9051C7.32812 42.6919 25.1957 23.5794 47.8964 21.6022V32.9526C31.4201 34.8565 18.6052 48.9162 18.6052 65.9051C18.6052 84.2121 33.4705 99.0773 51.7775 99.0773C68.7663 99.0773 82.8261 86.2625 84.73 69.7862H96.0803C94.1032 92.4868 74.9907 110.354 51.7775 110.354ZM55.6585 21.6022C65.0317 22.4077 73.5261 26.1424 80.3363 31.8541L72.3545 39.836C67.5947 36.1746 61.8829 33.6848 55.6585 32.9526V21.6022ZM85.8284 37.3462C91.5402 44.1564 95.2748 52.6509 96.0803 62.024H84.73C83.9977 55.7997 81.508 50.0879 77.8466 45.3281L85.8284 37.3462ZM51.7775 78.5003C57.416 78.5003 62.1758 74.8389 63.7868 69.7862H72.3545C70.597 79.5255 62.0294 86.8483 51.7775 86.8483C40.2074 86.8483 30.8343 77.4751 30.8343 65.9051C30.8343 55.6532 38.1571 47.0855 47.8964 45.2548V53.8957C42.8436 55.58 39.1823 60.3398 39.1823 65.9051C39.1823 72.8618 44.8208 78.5003 51.7775 78.5003ZM63.7868 62.024C63.5671 61.365 63.2742 60.7792 62.9813 60.1933L69.1325 54.1154C70.7435 56.4587 71.8419 59.0949 72.3545 62.024H63.7868ZM57.4892 54.7012C56.9034 54.4083 56.3176 54.1154 55.6585 53.8957V45.2548C58.5876 45.8407 61.2238 46.9391 63.5671 48.5501L57.4892 54.7012ZM55.6585 55.9461C55.805 56.0193 55.9514 56.0926 56.0979 56.0926L55.6585 56.5319V55.9461ZM61.59 61.6579C61.6632 61.7311 61.6632 61.8776 61.7364 62.024H61.1506L61.59 61.6579ZM61.7364 69.7862C60.1254 73.7405 56.3176 76.5964 51.7775 76.5964C45.9192 76.5964 41.0862 71.7633 41.0862 65.9051C41.0862 61.365 43.9421 57.4839 47.8964 55.9461V65.6122C47.8231 66.7106 48.1893 67.8823 49.068 68.6878C49.5806 69.2004 50.1664 69.4933 50.8987 69.713C50.8987 69.713 50.9719 69.713 51.0452 69.713C51.2649 69.7862 51.5578 69.7862 51.7775 69.7862H61.7364ZM51.7775 88.8254C63.0545 88.8254 72.5009 80.5507 74.3316 69.7862H82.8261C80.8489 85.2373 67.7411 97.1734 51.7775 97.1734C34.4957 97.1734 20.5091 83.1869 20.5091 65.9051C20.5091 49.9414 32.4453 36.8336 47.8964 34.8565V43.3509C37.1319 45.1816 28.8571 54.628 28.8571 65.9051C28.8571 78.5735 39.109 88.8254 51.7775 88.8254ZM74.3316 62.024C73.7458 58.5823 72.4277 55.4335 70.4506 52.7241L76.4552 46.7194C79.8237 51.0398 82.0938 56.3122 82.8261 62.024H74.3316ZM64.9585 47.232C62.249 45.2548 59.1002 43.9367 55.6585 43.3509V34.8565C61.3703 35.5888 66.6427 37.8588 70.9632 41.2273L64.9585 47.232Z" fill="#264642"/>
<path fill-rule="evenodd" clip-rule="evenodd" d="M54.9949 19.7715H48.5509C47.965 19.7715 47.3792 19.5519 47.0131 19.0393L44.3036 15.5243C44.084 15.2314 43.9375 14.792 43.9375 14.3527V1.97716C43.9375 1.17165 44.4501 0.439373 45.1824 0.146461C45.9147 -0.146451 46.7934 0.0732331 47.306 0.732284L51.7729 5.85824L56.1666 0.732284C56.7524 0.0732331 57.5579 -0.146451 58.3634 0.146461C59.0957 0.439373 59.6083 1.17165 59.6083 1.97716V14.3527C59.6083 14.792 59.4618 15.2314 59.1689 15.5975L56.4595 19.0393C56.0933 19.4786 55.5807 19.7715 54.9949 19.7715Z" fill="#264642"/>
<path fill-rule="evenodd" clip-rule="evenodd" d="M34.7135 124.927H13.4042C12.6719 124.927 12.0128 124.634 11.7199 123.975C11.3538 123.389 11.3538 122.657 11.7199 122.071L23.0702 102.373C28.9285 106.986 35.8851 110.208 43.5008 111.599L36.3977 123.975C36.0316 124.634 35.3725 124.927 34.7135 124.927Z" fill="#264642"/>
<path fill-rule="evenodd" clip-rule="evenodd" d="M90.1435 124.927H68.8342C68.1752 124.927 67.5161 124.634 67.2232 123.975L60.0469 111.599C67.5893 110.208 74.6192 106.986 80.4775 102.299L91.901 122.071C92.1939 122.657 92.1939 123.389 91.901 123.975C91.5349 124.634 90.8758 124.927 90.1435 124.927Z" fill="#264642"/>
<path fill-rule="evenodd" clip-rule="evenodd" d="M88.0204 36.1013C87.5078 36.1013 86.9952 35.9549 86.6291 35.5887L82.1622 31.0486C81.7228 30.6825 81.5031 30.0234 81.5764 29.4376L82.089 25.0439C82.1622 24.6046 82.3819 24.2384 82.6748 23.9455L91.4621 15.1582C92.048 14.5723 92.8535 14.4259 93.5857 14.792C94.318 15.0849 94.8306 15.8904 94.7574 16.6959L94.2448 23.5061L100.982 22.9935C101.787 22.9203 102.593 23.3597 102.886 24.092C103.252 24.8242 103.105 25.703 102.52 26.2888L93.7322 35.0761C93.4393 35.3691 92.9999 35.5887 92.5606 35.5887L88.2401 36.1746C88.1669 36.1013 88.0937 36.1013 88.0204 36.1013Z" fill="#264642"/>
<path fill-rule="evenodd" clip-rule="evenodd" d="M51.7789 67.809C50.6805 67.809 49.875 67.0035 49.875 65.9051V17.8676C49.875 16.7692 50.6805 15.9637 51.7789 15.9637C52.8773 15.9637 53.6828 16.7692 53.6828 17.8676V65.9051C53.6828 67.0035 52.8773 67.809 51.7789 67.809Z" fill="#264642"/>
<path fill-rule="evenodd" clip-rule="evenodd" d="M51.7765 67.809C51.2639 67.809 50.7513 67.6626 50.3851 67.2964C49.6529 66.5641 49.6529 65.3193 50.3851 64.5138L84.3629 30.6093C85.0952 29.8038 86.34 29.8038 87.0723 30.6093C87.8778 31.3415 87.8778 32.5864 87.0723 33.3187L53.1678 67.2964C52.8017 67.6626 52.2891 67.809 51.7765 67.809Z" fill="#264642"/>
<path fill-rule="evenodd" clip-rule="evenodd" d="M99.8164 67.809H51.7789C50.6805 67.809 49.875 67.0035 49.875 65.9051C49.875 64.8067 50.6805 64.0012 51.7789 64.0012H99.8164C100.915 64.0012 101.72 64.8067 101.72 65.9051C101.72 67.0035 100.915 67.809 99.8164 67.809Z" fill="#264642"/>
<path fill-rule="evenodd" clip-rule="evenodd" d="M115.701 73.7405H103.325C102.886 73.7405 102.446 73.594 102.08 73.3743L98.6385 70.5917C98.1992 70.2988 97.9062 69.7129 97.9062 69.1271V62.7563C97.9062 62.0972 98.1259 61.5846 98.6385 61.2185L102.153 58.4358C102.446 58.2162 102.886 58.0697 103.325 58.0697H115.701C116.506 58.0697 117.238 58.5823 117.531 59.3146C117.824 60.0469 117.605 60.9256 116.946 61.4382L111.82 65.9051L116.946 70.372C117.605 70.8846 117.824 71.6901 117.531 72.4956C117.238 73.2279 116.506 73.7405 115.701 73.7405Z" fill="#264642"/>
</svg>
