<svg width="60" height="60" viewBox="0 0 46 46" fill="none" xmlns="http://www.w3.org/2000/svg">
    <path
        d="M31.625 23C25.3 23 20.125 28.175 20.125 34.5C20.125 36.8 20.8437 39.1 22.1375 41.1125C22.425 41.5438 22.8563 41.6875 23.2875 41.6875C23.7188 41.6875 24.15 41.4 24.4375 41.1125C25.4437 39.675 26.8812 38.525 28.6062 37.95L34.7875 29.325C35.2188 28.75 36.0813 28.4625 36.8 29.0375C37.375 29.4688 37.6625 30.3313 37.0875 31.05L32.4875 37.375C34.9313 37.6625 37.2312 38.9563 38.6687 40.9688C38.9562 41.4 39.3875 41.5437 39.8188 41.5437C40.25 41.5437 40.6812 41.2563 40.9688 40.9688C42.2625 39.1 42.9812 36.8 42.9812 34.3562C43.125 28.175 37.95 23 31.625 23Z"
        fill="white" />
    <path
        d="M17.25 34.5C17.25 26.5938 23.7188 20.125 31.625 20.125C36.3688 20.125 40.5375 22.425 43.125 25.875V10.0625C43.125 7.61875 41.2562 5.75 38.8125 5.75H7.1875C4.74375 5.75 2.875 7.61875 2.875 10.0625V35.9375C2.875 38.3812 4.74375 40.25 7.1875 40.25H18.4C17.6813 38.3812 17.25 36.5125 17.25 34.5ZM17.3938 10.925C17.5375 10.7812 17.5375 10.6375 17.6813 10.4938C18.2563 9.91875 19.1187 9.91875 19.6938 10.4938C19.8375 10.6375 19.9812 10.7812 19.9812 10.925C20.125 11.0687 20.125 11.3562 20.125 11.5C20.125 11.6438 20.125 11.9312 19.9812 12.075C19.8375 12.2187 19.8375 12.3625 19.6938 12.5062C19.4062 12.7937 19.1187 12.9375 18.6875 12.9375C18.5437 12.9375 18.2563 12.9375 18.1125 12.7937C17.9688 12.65 17.825 12.65 17.6813 12.5062C17.5375 12.3625 17.3938 12.2187 17.3938 12.075C17.25 11.9312 17.25 11.6438 17.25 11.5C17.25 11.3562 17.25 11.0687 17.3938 10.925ZM13.0813 10.925C13.225 10.7812 13.225 10.6375 13.3688 10.4938C13.5125 10.35 13.6563 10.2062 13.8 10.2062C14.375 9.91875 14.95 10.0625 15.3812 10.4938C15.525 10.6375 15.6687 10.7812 15.6687 10.925C15.8125 11.0687 15.8125 11.3562 15.8125 11.5C15.8125 11.9313 15.6687 12.2187 15.3812 12.5062C15.0938 12.7937 14.8062 12.9375 14.375 12.9375C13.9438 12.9375 13.6562 12.7937 13.3688 12.5062C13.0813 12.2187 12.9375 11.9313 12.9375 11.5C12.9375 11.3562 12.9375 11.0687 13.0813 10.925ZM9.05625 10.4938L9.2 10.35C9.34375 10.35 9.34375 10.2062 9.4875 10.2062C9.63125 10.0625 9.63125 10.0625 9.775 10.0625C9.91875 10.0625 10.2062 10.0625 10.35 10.0625C10.4937 10.0625 10.4938 10.0625 10.6375 10.2062C10.7812 10.2062 10.7812 10.35 10.925 10.35L11.0687 10.4938C11.2125 10.6375 11.3562 10.7812 11.3562 10.925C11.5 11.0687 11.5 11.3562 11.5 11.5C11.5 11.6438 11.5 11.9312 11.3562 12.075C11.3562 12.2187 11.2125 12.3625 11.0687 12.5062C10.7812 12.7937 10.4938 12.9375 10.0625 12.9375C9.63125 12.9375 9.34375 12.7937 9.05625 12.5062C8.76875 12.2187 8.625 11.9313 8.625 11.5C8.625 11.0687 8.76875 10.7813 9.05625 10.4938ZM10.0625 20.125H17.25C18.1125 20.125 18.6875 20.7 18.6875 21.5625C18.6875 22.425 18.1125 23 17.25 23H10.0625C9.2 23 8.625 22.425 8.625 21.5625C8.625 20.7 9.2 20.125 10.0625 20.125ZM12.9375 27.3125H10.0625C9.2 27.3125 8.625 26.7375 8.625 25.875C8.625 25.0125 9.2 24.4375 10.0625 24.4375H12.9375C13.8 24.4375 14.375 25.0125 14.375 25.875C14.375 26.7375 13.8 27.3125 12.9375 27.3125Z"
        fill="white" />
</svg>