<svg width="46" height="46" viewBox="0 0 46 46" fill="none" xmlns="http://www.w3.org/2000/svg">
<path d="M37.5906 29.4688C37.1594 29.4688 36.7281 29.5406 36.3687 29.6844C36.5125 28.8938 36.6562 28.1031 36.6562 27.3125C36.6562 23.9344 35.4344 20.5563 33.2781 17.9688L29.9719 14.0157C30.5469 13.5844 30.9062 12.9375 30.9062 12.2188C30.9062 11.7157 30.6906 11.2125 30.4031 10.8532L31.1219 10.1344C32.8469 8.4094 33.4937 5.96565 32.9187 3.66565C32.7031 2.9469 32.2 2.3719 31.4094 2.15627C30.6906 1.94065 29.9 2.15627 29.325 2.73127L29.1812 2.87502C28.8937 3.16252 28.4625 3.16252 28.2469 2.87502L27.5281 2.0844C27.0969 1.65315 26.5219 1.36565 25.875 1.43752C25.3 1.5094 24.725 1.7969 24.3656 2.30002L24.15 2.58752C24.0062 2.73127 23.7906 2.87502 23.6469 2.87502C23.4313 2.87502 23.2875 2.80315 23.1438 2.6594C22.5688 2.0844 21.85 1.94065 21.0594 2.0844C20.3406 2.30002 19.7656 2.87502 19.55 3.59377C18.975 5.89377 19.6938 8.4094 21.3469 10.0625L21.7063 10.4219C21.2031 10.925 20.8438 11.5 20.8438 12.2188C20.8438 12.9375 21.2031 13.5844 21.7781 14.0157L21.2031 14.7344C20.7719 13.225 19.9813 11.8594 18.8313 10.7094C15.1656 7.04377 9.27187 7.04377 5.60625 10.7094C1.94063 14.375 1.94063 20.2688 5.60625 23.9344C7.40313 25.7313 9.84688 26.6656 12.2188 26.6656C13.225 26.6656 14.2313 26.5219 15.1656 26.1625C15.1656 26.5938 15.0938 26.9531 15.0938 27.3844C15.0938 27.8875 15.1656 28.3188 15.2375 28.8219H12.2188V28.1031C12.2188 27.6719 11.9312 27.3844 11.5 27.3844H2.15625C1.725 27.3844 1.4375 27.6719 1.4375 28.1031V43.9156C1.4375 44.3469 1.725 44.6344 2.15625 44.6344H11.5C11.9312 44.6344 12.2188 44.3469 12.2188 43.9156V43.1969H15.9563C16.3875 43.1969 16.675 42.9094 16.675 42.4781V41.7594H29.4688C30.7625 41.7594 31.9125 41.2563 32.8469 40.4656L39.1719 34.6438C40.3219 33.5657 40.5375 31.7688 39.5312 30.6188C39.1 29.9 38.3812 29.5406 37.5906 29.4688ZM7.1875 41.6875C5.96562 41.6875 5.03125 40.7532 5.03125 39.5313C5.03125 38.3094 5.96562 37.375 7.1875 37.375C8.40938 37.375 9.34375 38.3094 9.34375 39.5313C9.34375 40.7532 8.40938 41.6875 7.1875 41.6875ZM23 11.5H28.75C29.1812 11.5 29.4688 11.7875 29.4688 12.2188C29.4688 12.65 29.1812 12.9375 28.75 12.9375H23C22.5688 12.9375 22.2812 12.65 22.2812 12.2188C22.2812 11.7875 22.5688 11.5 23 11.5ZM25.875 23.7188C27.2406 23.7188 28.3906 24.8688 28.3906 26.2344C28.3906 27.3844 27.6 28.3188 26.5938 28.6063V29.4688C26.5938 29.9 26.3062 30.1875 25.875 30.1875C25.4438 30.1875 25.1562 29.9 25.1562 29.4688V28.6063C24.15 28.3188 23.3594 27.3125 23.3594 26.2344C23.3594 25.8032 23.6469 25.5156 24.0781 25.5156C24.5094 25.5156 24.7969 25.8032 24.7969 26.2344C24.7969 26.8094 25.3 27.3125 25.875 27.3125C26.45 27.3125 26.9531 26.8094 26.9531 26.2344C26.9531 25.6594 26.45 25.1563 25.875 25.1563C24.5094 25.1563 23.3594 24.0063 23.3594 22.6407C23.3594 21.4907 24.15 20.5563 25.1562 20.2688V19.4063C25.1562 18.975 25.4438 18.6875 25.875 18.6875C26.3062 18.6875 26.5938 18.975 26.5938 19.4063V20.2688C27.6 20.5563 28.3906 21.5625 28.3906 22.6407C28.3906 23.0719 28.1031 23.3594 27.6719 23.3594C27.2406 23.3594 26.9531 23.0719 26.9531 22.6407C26.9531 22.0657 26.45 21.5625 25.875 21.5625C25.3 21.5625 24.7969 22.0657 24.7969 22.6407C24.7969 23.2157 25.3 23.7188 25.875 23.7188ZM15.2375 30.9063V40.9688V41.6875H12.2188V30.1875H15.2375V30.9063ZM6.6125 22.8563C3.52187 19.7656 3.52187 14.7344 6.6125 11.6438C8.12187 10.1344 10.2063 9.34378 12.2188 9.34378C14.2312 9.34378 16.2437 10.1344 17.825 11.6438C20.9156 14.7344 20.9156 19.7656 17.825 22.8563C14.7344 25.9469 9.70312 25.9469 6.6125 22.8563ZM38.3094 33.4938L31.9844 39.3157C31.3375 39.8907 30.475 40.25 29.5406 40.25H16.675V31.625H19.55L26.5938 32.8469C27.3844 32.9907 27.8875 33.7094 27.7437 34.5719V34.6438C27.5281 35.3625 26.8813 35.7938 26.0906 35.65L21.2031 34.7875C20.8438 34.7157 20.4125 35.0032 20.3406 35.3625C20.2687 35.7219 20.5562 36.1532 20.9156 36.225L25.8031 37.0875C25.9469 37.0875 26.1625 37.1594 26.3062 37.1594C27.3844 37.1594 28.3187 36.5844 28.8219 35.65L30.475 35.7938C31.05 35.8657 31.6969 35.65 32.1281 35.2188L36.3687 31.3375C36.6562 31.05 37.0156 30.9063 37.4469 30.9781C37.8781 30.9781 38.2375 31.1938 38.4531 31.4813C38.9562 32.0563 38.8844 32.9188 38.3094 33.4938Z" fill="white"/>
<path d="M13.725 18.7594C12.8625 19.6219 12.8625 20.9875 13.725 21.7781C14.1562 22.2093 14.7313 22.425 15.2344 22.425C15.8094 22.425 16.3125 22.2093 16.7437 21.7781C17.6062 20.9156 17.6062 19.55 16.7437 18.7594C15.9531 17.9687 14.5875 17.9687 13.725 18.7594ZM15.8094 20.7719C15.5219 21.0594 15.0906 21.0594 14.8031 20.7719C14.5156 20.4843 14.5156 20.0531 14.8031 19.7656C14.9469 19.6219 15.1625 19.55 15.3062 19.55C15.5219 19.55 15.6656 19.6219 15.8094 19.7656C16.025 20.0531 16.025 20.5562 15.8094 20.7719Z" fill="white"/>
<path d="M16.8219 12.65C16.5344 12.3625 16.1031 12.3625 15.8156 12.65L7.62188 20.7719C7.33438 21.0594 7.33438 21.4906 7.62188 21.7781C7.76562 21.9219 7.98125 21.9938 8.125 21.9938C8.26875 21.9938 8.48437 21.9219 8.62812 21.7781L16.75 13.6563C17.1094 13.4406 17.1094 12.9375 16.8219 12.65Z" fill="white"/>
<path d="M9.20313 16.3875C9.77813 16.3875 10.2812 16.1719 10.7125 15.7406C11.575 14.8781 11.575 13.5125 10.7125 12.7219C9.85 11.8594 8.48438 11.8594 7.69375 12.7219C6.83125 13.5844 6.83125 14.95 7.69375 15.7406C8.05313 16.1719 8.62813 16.3875 9.20313 16.3875ZM8.62813 13.7281C8.77188 13.5844 8.9875 13.5125 9.13125 13.5125C9.34688 13.5125 9.49062 13.5844 9.63437 13.7281C9.92188 14.0156 9.92188 14.4469 9.63437 14.7344C9.34687 15.0219 8.91563 15.0219 8.62813 14.7344C8.4125 14.4469 8.4125 13.9438 8.62813 13.7281Z" fill="white"/>
<path d="M44.4941 10.9969C44.566 10.7094 44.4941 10.4219 44.2785 10.2063L39.2473 5.89377C38.9598 5.67815 38.6004 5.67815 38.3129 5.89377L33.2816 10.2063C33.066 10.4219 32.9941 10.7094 33.066 10.9969C33.1379 11.2844 33.4254 11.5 33.7129 11.5H35.8691V17.9688C35.8691 18.4 36.1566 18.6875 36.5879 18.6875H40.9004C41.3316 18.6875 41.6191 18.4 41.6191 17.9688V11.5H43.7754C44.1348 11.5 44.4223 11.2844 44.4941 10.9969Z" fill="white"/>
<path d="M40.9688 20.125C40.5375 20.125 40.25 20.4125 40.25 20.8438V28.0312C40.25 28.4625 40.5375 28.75 40.9688 28.75C41.4 28.75 41.6875 28.4625 41.6875 28.0312V20.8438C41.6875 20.4125 41.4 20.125 40.9688 20.125Z" fill="white"/>
<path d="M43.8438 25.1562C43.4125 25.1562 43.125 25.4437 43.125 25.875V34.5C43.125 34.9312 43.4125 35.2188 43.8438 35.2188C44.275 35.2188 44.5625 34.9312 44.5625 34.5V25.875C44.5625 25.4437 44.275 25.1562 43.8438 25.1562Z" fill="white"/>
<path d="M38.8125 23V20.8438C38.8125 20.4125 38.525 20.125 38.0938 20.125C37.6625 20.125 37.375 20.4125 37.375 20.8438V23C37.375 23.4313 37.6625 23.7188 38.0938 23.7188C38.525 23.7188 38.8125 23.4313 38.8125 23Z" fill="white"/>
</svg>
