<svg width="46" height="46" viewBox="0 0 46 46" fill="none" xmlns="http://www.w3.org/2000/svg">
<path d="M23.1066 34.9791H21.2724C20.9674 34.9791 20.6749 34.858 20.4592 34.6423C20.2436 34.4266 20.1224 34.1341 20.1224 33.8291V30.3791C20.1224 30.0741 20.2436 29.7816 20.4592 29.566C20.6749 29.3503 20.9674 29.2291 21.2724 29.2291H23.927C24.5233 27.9034 25.3869 26.715 26.4637 25.7384C27.5405 24.7619 28.8073 24.0182 30.1849 23.5539V20.7958C30.1849 20.4908 30.3061 20.1983 30.5217 19.9826C30.7374 19.767 31.0299 19.6458 31.3349 19.6458H34.7849C34.9359 19.6458 35.0855 19.6755 35.225 19.7333C35.3645 19.7911 35.4913 19.8758 35.5981 19.9826C35.7049 20.0894 35.7896 20.2162 35.8474 20.3557C35.9052 20.4952 35.9349 20.6448 35.9349 20.7958V23.2875C37.9528 23.7586 39.7865 24.8155 41.2057 26.3254V16.2916H4.78906V36.4166C4.78906 37.6875 5.2939 38.9062 6.19251 39.8048C7.09112 40.7035 8.3099 41.2083 9.58073 41.2083H26.319C24.5667 39.5608 23.4328 37.362 23.1066 34.9791ZM20.1224 20.7958C20.1224 20.4908 20.2436 20.1983 20.4592 19.9826C20.6749 19.767 20.9674 19.6458 21.2724 19.6458H24.7224C25.0274 19.6458 25.3199 19.767 25.5356 19.9826C25.7512 20.1983 25.8724 20.4908 25.8724 20.7958V24.2458C25.8724 24.5508 25.7512 24.8433 25.5356 25.059C25.3199 25.2746 25.0274 25.3958 24.7224 25.3958H21.2724C20.9674 25.3958 20.6749 25.2746 20.4592 25.059C20.2436 24.8433 20.1224 24.5508 20.1224 24.2458V20.7958ZM15.8099 33.8291C15.8099 34.1341 15.6887 34.4266 15.4731 34.6423C15.2574 34.858 14.9649 34.9791 14.6599 34.9791H11.2099C10.9049 34.9791 10.6124 34.858 10.3967 34.6423C10.1811 34.4266 10.0599 34.1341 10.0599 33.8291V30.3791C10.0599 30.0741 10.1811 29.7816 10.3967 29.566C10.6124 29.3503 10.9049 29.2291 11.2099 29.2291H14.6599C14.9649 29.2291 15.2574 29.3503 15.4731 29.566C15.6887 29.7816 15.8099 30.0741 15.8099 30.3791V33.8291ZM15.8099 24.2458C15.8099 24.5508 15.6887 24.8433 15.4731 25.059C15.2574 25.2746 14.9649 25.3958 14.6599 25.3958H11.2099C10.9049 25.3958 10.6124 25.2746 10.3967 25.059C10.1811 24.8433 10.0599 24.5508 10.0599 24.2458V20.7958C10.0599 20.4908 10.1811 20.1983 10.3967 19.9826C10.6124 19.767 10.9049 19.6458 11.2099 19.6458H14.6599C14.9649 19.6458 15.2574 19.767 15.4731 19.9826C15.6887 20.1983 15.8099 20.4908 15.8099 20.7958V24.2458Z" fill="white"/>
<path d="M36.4141 5.74994H35.4557V7.66661C35.4557 8.68327 35.0519 9.65829 34.333 10.3772C33.6141 11.0961 32.6391 11.4999 31.6224 11.4999C30.6057 11.4999 29.6307 11.0961 28.9118 10.3772C28.1929 9.65829 27.7891 8.68327 27.7891 7.66661V5.74994H18.2057V7.66661C18.2057 8.68327 17.8019 9.65829 17.083 10.3772C16.3641 11.0961 15.3891 11.4999 14.3724 11.4999C13.3557 11.4999 12.3807 11.0961 11.6618 10.3772C10.9429 9.65829 10.5391 8.68327 10.5391 7.66661V5.74994H9.58073C8.31037 5.75146 7.09247 6.25678 6.19419 7.15507C5.29591 8.05335 4.79058 9.27124 4.78906 10.5416V14.3749H41.2057V10.5416C41.2042 9.27124 40.6989 8.05335 39.8006 7.15507C38.9023 6.25678 37.6844 5.75146 36.4141 5.74994Z" fill="white"/>
<path d="M16.2865 3.83329C16.2865 2.77475 15.4283 1.91663 14.3698 1.91663C13.3112 1.91663 12.4531 2.77475 12.4531 3.83329V7.66663C12.4531 8.72517 13.3112 9.58329 14.3698 9.58329C15.4283 9.58329 16.2865 8.72517 16.2865 7.66663V3.83329Z" fill="white"/>
<path d="M33.5365 3.83329C33.5365 2.77475 32.6783 1.91663 31.6198 1.91663C30.5612 1.91663 29.7031 2.77475 29.7031 3.83329V7.66663C29.7031 8.72517 30.5612 9.58329 31.6198 9.58329C32.6783 9.58329 33.5365 8.72517 33.5365 7.66663V3.83329Z" fill="white"/>
<path d="M33.5391 24.9166C31.8332 24.9166 30.1656 25.4225 28.7473 26.3702C27.3289 27.3179 26.2234 28.665 25.5706 30.241C24.9178 31.817 24.747 33.5512 25.0798 35.2243C25.4126 36.8974 26.234 38.4342 27.4403 39.6404C28.6465 40.8467 30.1833 41.6681 31.8564 42.0009C33.5295 42.3337 35.2637 42.1629 36.8397 41.5101C38.4157 40.8573 39.7628 39.7518 40.7105 38.3334C41.6582 36.915 42.1641 35.2475 42.1641 33.5416C42.1641 31.2541 41.2554 29.0603 39.6379 27.4428C38.0204 25.8253 35.8266 24.9166 33.5391 24.9166ZM36.4141 34.5H33.5391C33.2849 34.5 33.0411 34.399 32.8614 34.2193C32.6817 34.0395 32.5807 33.7958 32.5807 33.5416V28.75C32.5807 28.4958 32.6817 28.252 32.8614 28.0723C33.0411 27.8926 33.2849 27.7916 33.5391 27.7916C33.7932 27.7916 34.037 27.8926 34.2167 28.0723C34.3964 28.252 34.4974 28.4958 34.4974 28.75V32.5833H36.4141C36.6682 32.5833 36.912 32.6843 37.0917 32.864C37.2714 33.0437 37.3724 33.2875 37.3724 33.5416C37.3724 33.7958 37.2714 34.0395 37.0917 34.2193C36.912 34.399 36.6682 34.5 36.4141 34.5Z" fill="white"/>
</svg>
