<svg width="46" height="46" viewBox="0 0 46 46" fill="none" xmlns="http://www.w3.org/2000/svg">
<path fill-rule="evenodd" clip-rule="evenodd" d="M15.8336 7.18748H14.375C13.5815 7.18748 12.9375 7.83148 12.9375 8.62498V13.4166C12.9375 14.2101 13.5815 14.8541 14.375 14.8541H31.625C32.4185 14.8541 33.0625 14.2101 33.0625 13.4166V8.62498C33.0625 7.83148 32.4185 7.18748 31.625 7.18748H30.1664C29.923 4.50031 27.6652 2.39581 24.9167 2.39581H21.0833C18.3348 2.39581 16.077 4.50031 15.8336 7.18748Z" fill="white"/>
<path fill-rule="evenodd" clip-rule="evenodd" d="M11.0208 9.10413H10.5417C8.68825 9.10413 7.1875 10.6068 7.1875 12.4583V40.25C7.1875 42.1034 8.69017 43.6041 10.5417 43.6041C15.7684 43.6041 30.2316 43.6041 35.4583 43.6041C37.3098 43.6041 38.8125 42.1034 38.8125 40.25V12.4583C38.8125 10.6068 37.3117 9.10413 35.4583 9.10413H34.9792V13.4166C34.9792 15.2681 33.4765 16.7708 31.625 16.7708H14.375C12.5235 16.7708 11.0208 15.2681 11.0208 13.4166V9.10413ZM15.3333 35.9375H30.6667C31.4602 35.9375 32.1042 35.2935 32.1042 34.5C32.1042 33.7065 31.4602 33.0625 30.6667 33.0625H15.3333C14.5398 33.0625 13.8958 33.7065 13.8958 34.5C13.8958 35.2935 14.5398 35.9375 15.3333 35.9375ZM15.3333 29.2291H30.6667C31.4602 29.2291 32.1042 28.5851 32.1042 27.7916C32.1042 26.9981 31.4602 26.3541 30.6667 26.3541H15.3333C14.5398 26.3541 13.8958 26.9981 13.8958 27.7916C13.8958 28.5851 14.5398 29.2291 15.3333 29.2291ZM18.2083 22.5208H27.7917C28.5852 22.5208 29.2292 21.8768 29.2292 21.0833C29.2292 20.2898 28.5852 19.6458 27.7917 19.6458H18.2083C17.4148 19.6458 16.7708 20.2898 16.7708 21.0833C16.7708 21.8768 17.4148 22.5208 18.2083 22.5208Z" fill="white"/>
</svg>
