<svg width="23" height="23" viewBox="0 0 23 23" fill="none" xmlns="http://www.w3.org/2000/svg">
<path d="M19.9056 20.125C19.5398 20.125 19.2422 20.4226 19.2422 20.7885C19.2422 21.1543 19.5398 21.4519 19.9056 21.4519C20.2715 21.4519 20.5691 21.1543 20.5691 20.7885C20.5691 20.4226 20.2715 20.125 19.9056 20.125Z" fill="white"/>
<path d="M14.598 20.125H12.8287H10.1749H8.40565C8.03982 20.125 7.74219 20.4226 7.74219 20.7885C7.74219 21.1543 8.03982 21.4519 8.40565 21.4519H14.598C14.9638 21.4519 15.2614 21.1543 15.2614 20.7885C15.2614 20.4226 14.9638 20.125 14.598 20.125Z" fill="white"/>
<path d="M12.6904 19.6828L13.3539 18.3558H9.64648L10.3099 19.6828H12.6904Z" fill="white"/>
<path d="M19.0209 2.87502C19.3867 2.87502 19.6843 2.57739 19.6843 2.21156C19.6843 1.84572 19.3867 1.5481 19.0209 1.5481C18.6551 1.5481 18.3574 1.84572 18.3574 2.21156C18.3574 2.57739 18.6551 2.87502 19.0209 2.87502Z" fill="white"/>
<path d="M6.85637 3.31735C7.10026 3.31735 7.29868 3.11894 7.29868 2.87505C7.29868 2.63116 7.10026 2.43274 6.85637 2.43274C6.61248 2.43274 6.41406 2.63116 6.41406 2.87505C6.41406 3.11894 6.61248 3.31735 6.85637 3.31735Z" fill="white"/>
<path d="M3.76067 19.6827C3.51678 19.6827 3.31836 19.8812 3.31836 20.125C3.31836 20.3689 3.51678 20.5674 3.76067 20.5674C4.00456 20.5674 4.20297 20.3689 4.20297 20.125C4.20297 19.8812 4.00456 19.6827 3.76067 19.6827Z" fill="white"/>
<path d="M2.43359 16.9183C2.43359 17.467 2.88001 17.9134 3.42879 17.9134H9.28936H13.7124H19.573C20.1217 17.9134 20.5682 17.467 20.5682 16.9183V15.7019H2.43359V16.9183ZM19.0201 16.3654C19.2644 16.3654 19.4624 16.5635 19.4624 16.8077C19.4624 17.052 19.2644 17.25 19.0201 17.25C18.7759 17.25 18.5778 17.052 18.5778 16.8077C18.5778 16.5635 18.7759 16.3654 19.0201 16.3654ZM17.6932 16.3654C17.9375 16.3654 18.1355 16.5635 18.1355 16.8077C18.1355 17.052 17.9375 17.25 17.6932 17.25C17.449 17.25 17.2509 17.052 17.2509 16.8077C17.2509 16.5635 17.449 16.3654 17.6932 16.3654ZM16.3663 16.3654C16.6105 16.3654 16.8086 16.5635 16.8086 16.8077C16.8086 17.052 16.6105 17.25 16.3663 17.25C16.122 17.25 15.924 17.052 15.924 16.8077C15.924 16.5635 16.122 16.3654 16.3663 16.3654Z" fill="white"/>
<path d="M19.573 5.08655H3.42879C2.88001 5.08655 2.43359 5.53297 2.43359 6.08174V15.2596H20.5682V6.08174C20.5682 5.53297 20.1217 5.08655 19.573 5.08655ZM7.96244 6.85578H11.9432C12.0654 6.85578 12.1644 6.95481 12.1644 7.07693C12.1644 7.19905 12.0654 7.29809 11.9432 7.29809H7.96244C7.84032 7.29809 7.74129 7.19905 7.74129 7.07693C7.74129 6.95481 7.84032 6.85578 7.96244 6.85578ZM6.76821 12.5615L4.99898 13.8885C4.96032 13.9174 4.91366 13.9327 4.86629 13.9327C4.84935 13.9327 4.83227 13.9308 4.81546 13.9268C4.75164 13.9117 4.69781 13.8691 4.66849 13.8104L4.22618 12.9258C4.17155 12.8165 4.21583 12.6837 4.32508 12.6291C4.43424 12.5744 4.5672 12.6188 4.62178 12.728L4.94559 13.3756L6.50282 12.2077C6.60053 12.1344 6.73915 12.1542 6.81244 12.2519C6.88573 12.3496 6.86591 12.4883 6.76821 12.5615ZM6.76821 9.9077L4.99898 11.2346C4.96032 11.2636 4.91366 11.2789 4.86629 11.2789C4.84935 11.2789 4.83227 11.2769 4.81546 11.2729C4.75164 11.2578 4.69781 11.2153 4.66849 11.1566L4.22618 10.272C4.17155 10.1627 4.21583 10.0299 4.32508 9.97529C4.43424 9.92071 4.5672 9.96494 4.62178 10.0742L4.94559 10.7218L6.50282 9.55386C6.60053 9.48061 6.73915 9.50038 6.81244 9.59809C6.88573 9.69579 6.86591 9.83441 6.76821 9.9077ZM6.76821 7.25386L4.99898 8.58078C4.96032 8.60975 4.91366 8.62501 4.86629 8.62501C4.84935 8.62501 4.83227 8.62306 4.81546 8.61908C4.75164 8.604 4.69781 8.56141 4.66849 8.50276L4.22618 7.61814C4.17155 7.50889 4.21583 7.37607 4.32508 7.32144C4.43424 7.26682 4.5672 7.31109 4.62178 7.42034L4.94559 8.06792L6.50282 6.90001C6.60053 6.82681 6.73915 6.84658 6.81244 6.94424C6.88573 7.04195 6.86591 7.18057 6.76821 7.25386ZM16.8086 13.9327H7.96244C7.84032 13.9327 7.74129 13.8337 7.74129 13.7115C7.74129 13.5894 7.84032 13.4904 7.96244 13.4904H16.8086C16.9308 13.4904 17.0297 13.5894 17.0297 13.7115C17.0297 13.8337 16.9308 13.9327 16.8086 13.9327ZM7.74129 12.3846C7.74129 12.2625 7.84032 12.1635 7.96244 12.1635H11.9432C12.0654 12.1635 12.1644 12.2625 12.1644 12.3846C12.1644 12.5068 12.0654 12.6058 11.9432 12.6058H7.96244C7.84032 12.6058 7.74129 12.5068 7.74129 12.3846ZM16.8086 11.2789H7.96244C7.84032 11.2789 7.74129 11.1798 7.74129 11.0577C7.74129 10.9356 7.84032 10.8365 7.96244 10.8365H16.8086C16.9308 10.8365 17.0297 10.9356 17.0297 11.0577C17.0297 11.1798 16.9308 11.2789 16.8086 11.2789ZM7.74129 9.73078C7.74129 9.60866 7.84032 9.50962 7.96244 9.50962H11.9432C12.0654 9.50962 12.1644 9.60866 12.1644 9.73078C12.1644 9.8529 12.0654 9.95193 11.9432 9.95193H7.96244C7.84032 9.95193 7.74129 9.8529 7.74129 9.73078ZM16.8086 8.62501H7.96244C7.84032 8.62501 7.74129 8.52598 7.74129 8.40386C7.74129 8.28173 7.84032 8.1827 7.96244 8.1827H16.8086C16.9308 8.1827 17.0297 8.28173 17.0297 8.40386C17.0297 8.52598 16.9308 8.62501 16.8086 8.62501Z" fill="white"/>
</svg>
