<svg width="447" height="419" viewBox="0 0 447 419" fill="none" xmlns="http://www.w3.org/2000/svg">
<g clip-path="url(#clip0_85_50527)">
<path d="M447 -21H0V419H447V-21Z" fill="white"/>
<path d="M303.482 334.528C332.544 333.395 366.823 332.608 388.241 309.843C413.964 282.501 406.753 239.907 388.322 210.753C353.114 155.062 279.771 145.933 236.023 99.5404C216.592 78.9324 200.751 49.8208 169.503 46.7998C136.42 43.6033 107.581 69.6083 93.6129 97.3465C75.3404 133.633 79.9351 176.051 88.7503 214.244C93.1867 233.462 99.4797 252.364 102.031 271.977C104.662 292.199 100.838 313.579 107.387 333.168C118.895 367.574 157.401 381.527 191.121 376.901C231.661 371.339 261.935 336.148 303.482 334.528Z" fill="#F3FAF8"/>
<path d="M106.129 253.099H52.7623C49.2778 253.099 46.4531 255.922 46.4531 259.405V293.256C46.4531 296.739 49.2778 299.562 52.7623 299.562H106.129C109.613 299.562 112.438 296.739 112.438 293.256V259.405C112.438 255.922 109.613 253.099 106.129 253.099Z" fill="#4A6C62"/>
<path d="M65.9198 299.996L53.0368 299.968C51.1686 299.961 49.3792 299.215 48.0603 297.892C46.7414 296.569 46.0006 294.778 46 292.911L46.0174 276.293C46.0174 276.178 46.0631 276.068 46.1444 275.986C46.2257 275.905 46.3361 275.859 46.4511 275.859C46.5662 275.859 46.6765 275.905 46.7578 275.986C46.8392 276.068 46.8849 276.178 46.8849 276.293L46.8665 292.911C46.8667 294.549 47.5164 296.12 48.6732 297.28C49.8299 298.439 51.3994 299.094 53.0379 299.099L65.9198 299.127C66.0348 299.127 66.1452 299.173 66.2265 299.254C66.3079 299.336 66.3536 299.446 66.3536 299.561C66.3536 299.676 66.3079 299.786 66.2265 299.868C66.1452 299.949 66.0348 299.995 65.9198 299.995V299.996Z" fill="#302626"/>
<path d="M79.8268 267.732C79.4389 266.875 78.9137 266.088 78.2717 265.4C75.7212 262.682 71.3791 261.724 67.7116 262.94C67.0739 263.151 64.069 264.147 62.3979 267.019C59.4884 272.024 63.0486 278.558 64.6015 281.395C68.8481 289.179 76.0172 292.808 79.5665 294.282C83.4716 292.292 87.019 289.668 90.0638 286.516C93.5816 282.855 97.401 278.881 97.5788 273.176C97.6168 271.947 97.7859 266.49 93.8213 263.721C89.9174 260.999 83.8825 262.175 81.1227 265.47C80.5627 266.143 80.1242 266.909 79.8268 267.732Z" fill="white"/>
<path d="M390.699 211.04H313.453C311.646 211.04 309.913 210.323 308.636 209.046C307.358 207.769 306.641 206.037 306.641 204.231V161.545C306.641 159.75 307.35 158.028 308.614 156.752C309.878 155.477 311.594 154.752 313.39 154.736L393.566 153.99C394.504 153.982 395.434 154.167 396.297 154.534C397.16 154.901 397.938 155.443 398.582 156.124C399.227 156.806 399.723 157.614 400.04 158.496C400.358 159.378 400.489 160.317 400.427 161.253L397.499 204.685C397.384 206.409 396.618 208.025 395.355 209.205C394.092 210.386 392.427 211.042 390.699 211.04Z" fill="#CCC0C0"/>
<path d="M326.18 190.039C330.335 190.039 333.704 186.672 333.704 182.519C333.704 178.365 330.335 174.998 326.18 174.998C322.025 174.998 318.656 178.365 318.656 182.519C318.656 186.672 322.025 190.039 326.18 190.039Z" fill="white"/>
<path d="M353.688 190.039C357.843 190.039 361.212 186.672 361.212 182.519C361.212 178.365 357.843 174.998 353.688 174.998C349.533 174.998 346.164 178.365 346.164 182.519C346.164 186.672 349.533 190.039 353.688 190.039Z" fill="white"/>
<path d="M380.071 190.039C384.226 190.039 387.594 186.672 387.594 182.519C387.594 178.365 384.226 174.998 380.071 174.998C375.915 174.998 372.547 178.365 372.547 182.519C372.547 186.672 375.915 190.039 380.071 190.039Z" fill="white"/>
<path d="M360.094 212.119C359.979 212.12 359.868 212.075 359.786 211.995C359.704 211.914 359.657 211.804 359.656 211.689C359.655 211.574 359.7 211.464 359.781 211.382C359.861 211.3 359.971 211.253 360.086 211.252L389.058 210.789C393.562 210.717 397.225 206.995 397.221 202.492L397.21 186.487C397.21 186.372 397.256 186.262 397.337 186.18C397.419 186.099 397.529 186.053 397.644 186.053C397.759 186.053 397.87 186.099 397.951 186.18C398.032 186.262 398.078 186.372 398.078 186.487L398.089 202.492C398.091 204.897 397.146 207.207 395.459 208.921C393.772 210.636 391.478 211.619 389.072 211.657L360.1 212.12L360.094 212.119Z" fill="#302626"/>
<path d="M68.8916 112.109H153.747C155.731 112.109 157.634 111.321 159.038 109.918C160.441 108.515 161.229 106.613 161.229 104.629V57.7314C161.229 55.7596 160.45 53.8675 159.062 52.4668C157.673 51.0661 155.788 50.2702 153.815 50.2522L65.7403 49.4327C64.7092 49.423 63.6872 49.6265 62.7385 50.0303C61.7898 50.4341 60.9348 51.0295 60.2273 51.7792C59.5197 52.5289 58.9748 53.4167 58.6267 54.3869C58.2786 55.3571 58.1349 56.3887 58.2046 57.4171L61.4232 105.127C61.5495 107.021 62.3913 108.796 63.7781 110.092C65.1649 111.388 66.9929 112.109 68.8916 112.109Z" fill="#CCC0C0"/>
<path d="M161.229 99.5544V127.772L145.227 104.327L161.229 99.5544Z" fill="#CCC0C0"/>
<path d="M94.9481 112.542H94.9405L70.0508 112.097C67.5702 112.047 65.2005 111.06 63.4182 109.334C61.636 107.609 60.5733 105.273 60.4439 102.797L59.3443 80.7523C59.3385 80.6373 59.3787 80.5247 59.456 80.4394C59.5333 80.354 59.6413 80.3028 59.7564 80.2971C59.8714 80.2913 59.984 80.3315 60.0694 80.4087C60.1549 80.486 60.2061 80.594 60.2118 80.7089L61.306 102.753C61.4239 105.01 62.3924 107.139 64.0168 108.712C65.6411 110.284 67.8008 111.184 70.0617 111.23L94.9557 111.675C95.0127 111.676 95.069 111.687 95.1214 111.71C95.1739 111.732 95.2214 111.764 95.2613 111.805C95.3013 111.845 95.3328 111.894 95.3541 111.946C95.3755 111.999 95.3862 112.056 95.3857 112.113C95.3852 112.169 95.3735 112.226 95.3512 112.278C95.329 112.331 95.2966 112.378 95.256 112.418C95.2153 112.458 95.1672 112.489 95.1144 112.511C95.0616 112.532 95.0051 112.543 94.9481 112.542Z" fill="#302626"/>
<path d="M107.998 67.5997L120.966 60.7849L118.489 75.2177L128.98 85.4393L114.482 87.5454L107.998 100.677L101.514 87.5454L87.0156 85.4393L97.5074 75.2177L95.0306 60.7849L107.998 67.5997Z" fill="white"/>
<path d="M328.164 97.0722C328.164 101.408 317.719 103.63 316.157 107.398C314.536 111.3 320.285 120.246 317.34 123.19C314.395 126.134 305.449 120.387 301.541 122.006C297.771 123.569 295.546 134.008 291.211 134.008C286.875 134.008 284.65 123.569 280.88 122.006C276.977 120.387 268.027 126.134 265.081 123.19C262.136 120.246 267.886 111.303 266.266 107.398C264.702 103.63 254.258 101.405 254.258 97.0722C254.258 92.7397 264.702 90.5143 266.266 86.7465C267.886 82.8443 262.136 73.8974 265.081 70.9534C268.027 68.0094 276.972 73.7565 280.88 72.1371C284.65 70.5751 286.876 60.1356 291.211 60.1356C295.545 60.1356 297.771 70.5751 301.541 72.1371C305.445 73.7565 314.396 68.0105 317.34 70.9545C320.284 73.8985 314.536 82.8421 316.157 86.7443C317.719 90.5143 328.164 92.7386 328.164 97.0722Z" fill="#4A6C62"/>
<path d="M282.064 106.346C282.599 107.03 283.202 107.658 283.863 108.221C285.308 109.444 286.991 110.355 288.805 110.896C290.637 111.438 292.406 111.404 294.289 111.438C297.281 111.489 300.278 111.438 303.27 111.438C304.764 111.438 306.74 111.004 306.957 109.209C307.096 108.017 306.273 106.833 305.154 106.413C306.261 106.315 307.214 105.309 307.25 104.2C307.286 103.091 306.404 102.023 305.307 101.851C305.824 101.613 306.263 101.232 306.571 100.754C306.88 100.275 307.045 99.7178 307.047 99.1484C307.049 98.5789 306.889 98.0207 306.584 97.5394C306.28 97.058 305.844 96.6737 305.329 96.4316C306.139 96.0208 306.441 94.9249 306.128 94.0729C305.814 93.2209 305.014 92.6182 304.153 92.3321C303.253 92.0329 302.27 91.9462 301.349 91.8053C300.392 91.66 299.397 92.0026 298.413 91.8963C297.373 91.7879 296.32 91.3164 295.749 90.4406C295.23 89.645 295.175 88.6391 295.212 87.6895C295.274 86.0961 295.55 84.5071 295.469 82.9137C295.388 81.3203 294.885 79.6618 293.676 78.6169C292.623 77.7107 291.164 77.3953 289.772 77.4679C289.428 77.4853 289.051 77.5405 288.82 77.7931C288.443 78.2115 288.667 78.864 288.869 79.3898C289.73 81.6379 289.628 83.8198 289.148 86.1265C288.714 88.2153 287.094 88.871 285.426 89.9203C284.158 90.7213 283.159 92.1012 283.207 93.6003C283.352 98.0174 281.653 101.956 282.064 106.346Z" fill="white"/>
<path d="M280.322 92.3234H278.41C276.622 92.3234 275.172 93.7725 275.172 95.56V108.2C275.172 109.987 276.622 111.437 278.41 111.437H280.322C282.11 111.437 283.56 109.987 283.56 108.2V95.56C283.56 93.7725 282.11 92.3234 280.322 92.3234Z" fill="white"/>
<path d="M314.995 124.565C313.93 124.565 312.905 124.261 311.862 123.915C311.568 123.82 311.274 123.722 310.98 123.625C309.04 122.981 307.034 122.315 305 122.12C303.481 121.976 300.64 122.006 298.562 123.833C298.52 123.873 298.47 123.905 298.415 123.925C298.361 123.946 298.302 123.956 298.244 123.953C298.185 123.951 298.128 123.936 298.075 123.911C298.022 123.886 297.975 123.85 297.936 123.806C297.898 123.762 297.868 123.711 297.85 123.656C297.832 123.6 297.825 123.541 297.83 123.483C297.835 123.425 297.851 123.368 297.879 123.316C297.907 123.265 297.944 123.219 297.99 123.182C300.313 121.14 303.43 121.1 305.082 121.258C307.214 121.462 309.268 122.143 311.253 122.802C311.546 122.899 311.839 122.997 312.132 123.092C313.166 123.43 314.178 123.73 315.177 123.691C316.012 123.657 317.087 123.312 317.603 122.444C318.19 121.452 317.891 120.133 317.534 118.867L316.063 113.646C315.606 112.026 315.087 110.19 315.439 108.361C315.765 106.688 316.843 105.055 318.487 103.767C319.932 102.633 321.604 101.874 323.221 101.139C323.273 101.114 323.33 101.099 323.388 101.096C323.446 101.093 323.503 101.101 323.558 101.121C323.612 101.141 323.663 101.171 323.705 101.21C323.748 101.249 323.782 101.297 323.806 101.349C323.83 101.402 323.843 101.459 323.845 101.517C323.846 101.575 323.836 101.633 323.815 101.687C323.794 101.74 323.763 101.79 323.722 101.831C323.682 101.873 323.633 101.906 323.58 101.928C322.01 102.641 320.385 103.38 319.025 104.448C317.545 105.608 316.576 107.056 316.294 108.525C315.983 110.151 316.471 111.885 316.901 113.411L318.373 118.632C318.78 120.08 319.115 121.602 318.352 122.887C317.772 123.863 316.57 124.504 315.215 124.558C315.139 124.564 315.066 124.565 314.995 124.565Z" fill="#302626"/>
<path d="M332.803 234.269C331.798 249.27 332.369 264.361 330.928 279.329C328.849 300.953 322.377 322.078 312.285 341.311C304.695 355.801 295.072 369.133 283.707 380.901C281.295 383.395 278.804 385.812 276.236 388.153C276.154 388.229 276.071 388.305 275.989 388.379L272.105 388.487L270.147 388.547L268.662 388.59C268.277 388.603 267.891 388.614 267.507 388.625C268.375 380.857 267.309 372.662 267.239 364.832C267.106 349.912 269.647 335.085 274.223 320.864C274.466 320.103 274.717 319.344 274.976 318.588C277.319 311.682 280.111 304.937 283.334 298.396C284.287 296.474 285.269 294.567 286.281 292.677C298.175 270.528 314.7 251.721 332.803 234.269Z" fill="#5A8276"/>
<path d="M270.154 388.988C270.078 388.988 270.003 388.968 269.937 388.93C269.871 388.892 269.816 388.838 269.777 388.772C269.739 388.706 269.719 388.631 269.719 388.555C269.719 388.478 269.739 388.403 269.777 388.337C271.435 385.413 273.091 382.489 274.747 379.567C275.304 378.584 276.039 377.291 276.782 375.962C278.221 373.409 280.099 370.038 281.879 366.598C283.536 363.39 284.928 360.476 286.135 357.684C288.362 352.541 290.24 347.15 292.056 341.936L292.066 341.909C302.91 310.776 313.753 279.643 324.593 248.513C324.631 248.404 324.711 248.315 324.814 248.265C324.918 248.214 325.037 248.208 325.146 248.245C325.255 248.283 325.344 248.363 325.394 248.466C325.444 248.57 325.451 248.689 325.413 248.798C314.569 279.929 303.725 311.061 292.881 342.194L292.871 342.222C291.05 347.45 289.166 352.856 286.927 358.028C285.711 360.838 284.311 363.773 282.646 366.995C280.86 370.449 278.976 373.824 277.535 376.388C276.791 377.712 276.055 379.011 275.497 379.994C273.841 382.919 272.184 385.842 270.527 388.764C270.49 388.831 270.436 388.887 270.371 388.926C270.305 388.965 270.231 388.987 270.154 388.988Z" fill="#10171B"/>
<path d="M349.403 318.206C340.511 351.266 316.53 378.34 284.351 388.048L284.018 388.148L276.141 388.375C276.18 388.301 276.218 388.229 276.249 388.158C278.491 383.837 280.76 379.517 283.18 375.293C286.623 369.276 290.37 363.454 294.767 358.102C299.941 351.803 305.884 346.295 312.299 341.318C323.737 332.435 336.671 325.237 349.403 318.206Z" fill="#4A6C62"/>
<path d="M276.872 388.703C276.784 388.703 276.697 388.676 276.625 388.626C276.552 388.576 276.497 388.505 276.466 388.423C276.434 388.34 276.429 388.25 276.45 388.165C276.471 388.079 276.518 388.002 276.584 387.944C299.641 367.566 322.291 346.131 343.903 324.229C343.985 324.151 344.094 324.107 344.207 324.107C344.32 324.108 344.429 324.153 344.509 324.232C344.59 324.311 344.636 324.419 344.639 324.532C344.641 324.645 344.599 324.755 344.521 324.838C322.895 346.754 300.23 368.204 277.158 388.594C277.079 388.664 276.977 388.702 276.872 388.703Z" fill="#10171B"/>
<path d="M281.605 361.231C280.391 366.289 278.906 371.278 277.158 376.178C275.669 380.359 273.986 384.464 272.11 388.494L270.152 388.554L268.667 388.597C268.282 388.61 267.896 388.621 267.512 388.632L266.843 388.652C265.726 383.187 264.1 377.931 262.506 372.351C260.347 364.821 257.534 357.483 255.627 349.884C249.518 325.549 253.579 300.282 261.863 276.402C264.094 269.97 266.634 263.641 269.358 257.457C276.082 270.303 280.738 284.158 283.337 298.401C287.127 319.238 286.537 340.635 281.605 361.231Z" fill="#4A6C62"/>
<path d="M268.669 389.031C268.607 389.031 268.546 389.017 268.49 388.992C268.438 388.969 268.391 388.935 268.352 388.894C268.313 388.852 268.282 388.803 268.262 388.75C268.242 388.696 268.233 388.64 268.235 388.583C268.236 388.526 268.25 388.469 268.273 388.418C275.726 372.023 275.527 353.165 274.755 336.776C274.507 331.504 274.184 326.163 273.797 320.903C273.541 317.422 273.255 313.897 272.935 310.426C272.113 301.394 271.071 292.241 269.837 283.219L269.728 282.409C268.932 276.614 268.108 270.621 268.916 264.74C268.924 264.684 268.943 264.629 268.972 264.58C269 264.531 269.039 264.488 269.084 264.454C269.129 264.419 269.181 264.394 269.236 264.38C269.291 264.365 269.349 264.362 269.405 264.37C269.462 264.377 269.516 264.396 269.565 264.425C269.615 264.454 269.658 264.492 269.692 264.537C269.726 264.583 269.752 264.634 269.766 264.689C269.78 264.745 269.784 264.802 269.776 264.858C268.985 270.621 269.8 276.553 270.588 282.29L270.697 283.102C271.933 292.134 272.974 301.299 273.799 310.344C274.116 313.82 274.407 317.351 274.667 320.837C275.056 326.104 275.379 331.452 275.627 336.732C276.002 344.697 276.269 354.082 275.4 363.309C274.478 373.1 272.407 381.429 269.068 388.773C269.034 388.85 268.978 388.916 268.907 388.962C268.836 389.007 268.753 389.032 268.669 389.031Z" fill="#10171B"/>
<path d="M173.99 310.958C185.734 264.944 177.494 214.193 151.793 174.253C143.423 161.246 133.358 149.418 124.608 136.66C121.095 162.278 119.723 187.989 124.222 213.452C128.722 238.915 138.615 263.695 154.803 283.861C161.723 292.477 170.599 300.444 173.99 310.958Z" fill="#5A8276"/>
<path d="M173.638 310.552C173.533 310.553 173.432 310.517 173.352 310.449C173.272 310.381 173.22 310.287 173.204 310.184L170.262 290.987C169 282.754 167.695 274.241 165.524 266.056C164.043 260.472 162.123 254.913 160.266 249.537L127.058 153.391C127.038 153.337 127.029 153.279 127.032 153.221C127.034 153.164 127.048 153.107 127.073 153.055C127.098 153.002 127.132 152.956 127.175 152.917C127.219 152.878 127.269 152.849 127.323 152.83C127.378 152.811 127.436 152.803 127.494 152.807C127.551 152.811 127.608 152.826 127.659 152.852C127.711 152.878 127.757 152.914 127.795 152.958C127.832 153.002 127.861 153.053 127.878 153.108L161.087 249.254C162.947 254.646 164.873 260.22 166.363 265.838C168.545 274.064 169.854 282.6 171.12 290.856L174.062 310.053C174.07 310.109 174.068 310.166 174.054 310.222C174.041 310.277 174.016 310.329 173.983 310.375C173.949 310.421 173.906 310.46 173.858 310.489C173.809 310.519 173.755 310.538 173.698 310.547C173.678 310.55 173.658 310.552 173.638 310.552Z" fill="#10171B"/>
<path d="M175.647 308.992C167.421 260.006 133.47 216.084 88.125 195.767C96.307 227.488 109.958 259.154 135.897 279.175C142.277 284.1 149.224 288.239 155.763 292.949C162.889 298.081 169.616 302.609 175.647 308.992Z" fill="#4A6C62"/>
<path d="M171.345 303.634C171.246 303.634 171.151 303.601 171.074 303.54C170.997 303.479 170.944 303.393 170.922 303.297C166.726 284.87 154.317 269.428 143.014 256.403C130.977 242.528 118.16 229.023 104.932 216.269L104.322 215.68C99.984 211.508 95.5097 207.194 92.4191 201.932C92.3608 201.833 92.3444 201.715 92.3734 201.603C92.4023 201.492 92.4744 201.397 92.5736 201.339C92.6728 201.28 92.7911 201.264 92.9025 201.293C93.0138 201.322 93.1091 201.394 93.1673 201.493C96.1972 206.652 100.634 210.923 104.924 215.055L105.536 215.645C118.78 228.416 131.611 241.938 143.67 255.84C149.162 262.169 155.482 269.742 160.709 277.912C166.269 286.603 169.886 294.846 171.77 303.111C171.795 303.223 171.775 303.34 171.714 303.437C171.653 303.534 171.556 303.603 171.444 303.629C171.411 303.635 171.378 303.637 171.345 303.634Z" fill="#10171B"/>
<path d="M284.346 388.138L284.005 388.148L276.128 388.375L275.995 388.381L272.111 388.489L270.153 388.549L268.668 388.592C268.283 388.605 267.897 388.616 267.513 388.627L266.844 388.646C224.579 389.908 188.895 390.945 160.201 387.959C159.451 343.942 165.153 282.041 165.153 282.041C165.153 282.041 242.627 276.743 261.866 276.397C263.644 276.366 264.925 276.375 265.6 276.436C267.552 284.451 270.399 295.803 273.367 310.381C273.901 313.012 274.439 315.748 274.982 318.588C277.313 330.865 279.645 345.097 281.607 361.226C281.831 363.058 282.048 364.914 282.258 366.794C282.573 369.57 282.876 372.399 283.168 375.283C283.354 377.132 283.535 379.003 283.71 380.897C283.927 383.243 284.135 385.625 284.335 388.041C284.341 388.082 284.342 388.108 284.346 388.138Z" fill="#264642"/>
<path d="M222.721 390.163C222.617 390.163 222.517 390.125 222.438 390.058C222.36 389.99 222.308 389.897 222.292 389.794C218.896 367.597 216.019 337.265 215.786 334.746L205.139 324.894C205.055 324.816 205.005 324.707 205 324.592C204.996 324.477 205.037 324.365 205.116 324.281C205.194 324.197 205.302 324.147 205.417 324.142C205.532 324.138 205.644 324.18 205.729 324.258L216.497 334.222C216.575 334.295 216.624 334.394 216.634 334.5C216.663 334.819 219.628 366.63 223.153 389.664C223.171 389.778 223.142 389.893 223.074 389.986C223.006 390.078 222.904 390.14 222.79 390.157C222.767 390.161 222.744 390.163 222.721 390.163Z" fill="#302626"/>
<path d="M150.066 300.24C151.917 299.487 155.258 288.946 154.766 288.199C145.417 270.323 118.856 221.295 103.571 222.788C95.8146 223.547 90.7883 227.208 90.5974 236.946C90.1528 259.657 130.281 295.386 140.047 304.611C143.34 302.944 146.644 301.628 150.066 300.24Z" fill="#F79B79"/>
<path d="M289.683 212.14L305.552 227.25L302.288 258.813C302.288 258.813 277.536 258.128 254.402 221.587C253.979 220.612 289.683 212.14 289.683 212.14Z" fill="#F79B79"/>
<path d="M272.017 162.809C272.017 162.809 286.613 176.449 301.631 223.815C301.631 227.429 295.47 239.365 273.978 248.281C271.047 244.62 212.008 201.673 272.017 162.809Z" fill="#C7B5B3"/>
<path d="M150.017 217.115C150.017 217.115 131.86 236.654 116.166 248.078C117.195 247.307 92.1719 229.41 92.1719 229.41C92.1719 229.41 97.7306 216.413 129.355 182.447C130.146 181.984 150.017 217.115 150.017 217.115Z" fill="#F79B79"/>
<path d="M166.467 154.816C166.467 154.816 148.123 158.273 103.258 207.254C101.359 210.328 113.405 226.912 134.154 240.222C149.204 231.866 198.29 213.17 166.467 154.816Z" fill="#C7B5B3"/>
<path d="M241.633 91.6969C241.346 92.9261 239.276 98.9734 237.848 100.878C232.089 108.562 224.865 113.583 215.237 113.583C207.615 113.583 200.456 110.454 194.849 105.304C192.119 102.795 192.61 102.443 190.97 99.1089C189.047 95.197 186.965 86.249 186.865 81.8915C186.666 73.208 186.837 63.5999 193.862 59.1742C194.737 58.6224 195.38 57.765 196.179 57.1233C201.746 50.3964 208.308 50.3964 215.238 50.3964C225.549 50.3964 238.997 55.0075 242.075 68.0224C243.157 72.6075 243.895 81.9902 241.633 91.6969Z" fill="black"/>
<path d="M200.619 139.596L200.9 97.948L228.553 110.818L228.228 142.081C228.217 143.126 228.495 144.155 229.033 145.052C229.57 145.949 230.345 146.68 231.272 147.165L236.977 153.971C236.977 153.971 226.374 187.757 187.992 153.971C192.922 152.57 192.688 146.245 196.691 144.954C197.827 144.588 198.817 143.873 199.523 142.911C200.228 141.949 200.612 140.789 200.619 139.596Z" fill="#F79B79"/>
<path d="M200.711 125.885C211.417 128.293 224.514 125.87 228.438 121.515L228.546 110.818L200.861 103.513L200.711 125.885Z" fill="#EF8564"/>
<path d="M193.926 91.8563C195.148 110.238 200.751 122.793 213.494 123.069C232.656 123.482 236.745 108.48 236.978 88.9784C237.195 70.5578 225.706 59.8387 212.988 60.6874C200.27 61.5361 192.702 73.4747 193.926 91.8563Z" fill="#F79B79"/>
<path d="M204.846 92.6128C205.485 92.6128 206.004 91.6073 206.004 90.3669C206.004 89.1265 205.485 88.121 204.846 88.121C204.206 88.121 203.688 89.1265 203.688 90.3669C203.688 91.6073 204.206 92.6128 204.846 92.6128Z" fill="#264642"/>
<path d="M223.564 92.6128C224.204 92.6128 224.723 91.6073 224.723 90.3669C224.723 89.1265 224.204 88.121 223.564 88.121C222.925 88.121 222.406 89.1265 222.406 90.3669C222.406 91.6073 222.925 92.6128 223.564 92.6128Z" fill="#264642"/>
<path d="M235.895 92.6519C235.895 92.6519 242.684 85.3992 246.971 90.9045C248.148 92.4395 248.691 94.3672 248.489 96.2907C248.081 100.355 245.414 106.723 235.266 105.888C235.309 106.342 235.895 92.6519 235.895 92.6519Z" fill="#F79B79"/>
<path d="M237.848 101.312C237.789 101.312 237.73 101.3 237.676 101.276C237.624 101.253 237.577 101.221 237.537 101.18C237.497 101.139 237.466 101.091 237.445 101.038C237.424 100.985 237.413 100.928 237.414 100.871C237.415 100.814 237.427 100.758 237.45 100.706C239.899 95.0463 245.114 93.9851 245.334 93.9472C245.445 93.9303 245.558 93.957 245.65 94.0217C245.742 94.0863 245.805 94.1839 245.826 94.2939C245.847 94.404 245.825 94.518 245.764 94.6119C245.702 94.7059 245.607 94.7727 245.498 94.7981C245.443 94.8089 240.51 95.8278 238.247 101.05C238.213 101.128 238.157 101.194 238.086 101.241C238.015 101.287 237.932 101.312 237.848 101.312Z" fill="#302626"/>
<path d="M243.177 99.4417C243.075 99.4416 242.977 99.4059 242.899 99.3409L240.575 97.3898C240.529 97.3542 240.49 97.3095 240.462 97.2586C240.433 97.2077 240.415 97.1515 240.409 97.0934C240.402 97.0353 240.408 96.9766 240.425 96.9206C240.442 96.8647 240.47 96.8128 240.507 96.768C240.545 96.7232 240.591 96.6864 240.643 96.6599C240.695 96.6334 240.752 96.6177 240.81 96.6137C240.869 96.6097 240.927 96.6175 240.982 96.6367C241.038 96.6559 241.088 96.6861 241.132 96.7254L243.456 98.6765C243.524 98.7336 243.573 98.8104 243.596 98.8965C243.62 98.9825 243.616 99.0736 243.585 99.1574C243.555 99.2411 243.499 99.3135 243.426 99.3645C243.353 99.4156 243.266 99.4429 243.177 99.4428V99.4417Z" fill="#302626"/>
<path d="M197.215 93.5851C197.215 93.5851 191.258 85.6333 186.395 90.64C185.058 92.0372 184.307 93.8934 184.297 95.8267C184.258 99.911 186.215 106.532 196.392 106.81C196.301 107.258 197.215 93.5851 197.215 93.5851Z" fill="#F79B79"/>
<path d="M194.375 101.982C194.282 101.982 194.192 101.953 194.118 101.898C194.043 101.843 193.988 101.765 193.961 101.677C192.284 96.2354 187.483 94.6854 187.436 94.6702C187.38 94.6548 187.327 94.6283 187.282 94.5922C187.236 94.5562 187.198 94.5114 187.171 94.4605C187.143 94.4096 187.125 94.3536 187.119 94.2958C187.114 94.238 187.119 94.1797 187.137 94.1242C187.154 94.0687 187.182 94.0173 187.219 93.9729C187.257 93.9285 187.303 93.892 187.354 93.8657C187.406 93.8394 187.463 93.8237 187.521 93.8197C187.579 93.8156 187.637 93.8232 187.692 93.8421C187.909 93.9082 192.974 95.5287 194.79 101.421C194.81 101.486 194.815 101.555 194.803 101.622C194.792 101.689 194.765 101.752 194.725 101.807C194.684 101.861 194.632 101.906 194.571 101.936C194.51 101.967 194.443 101.983 194.375 101.982Z" fill="#302626"/>
<path d="M189.286 99.5425C189.193 99.5425 189.102 99.5127 189.027 99.4572C188.952 99.4017 188.897 99.3237 188.87 99.2346C188.843 99.1454 188.846 99.05 188.877 98.9623C188.909 98.8747 188.967 98.7995 189.045 98.7479L191.568 97.0667C191.664 97.0054 191.78 96.9842 191.892 97.0076C192.003 97.0309 192.101 97.0971 192.164 97.1917C192.227 97.2864 192.25 97.402 192.228 97.5136C192.207 97.6253 192.142 97.724 192.049 97.7886L189.526 99.4698C189.455 99.5173 189.371 99.5425 189.286 99.5425Z" fill="#302626"/>
<path d="M228.966 85.0263C228.864 85.0262 228.766 84.9905 228.688 84.9255C225.073 81.9078 219.388 84.4139 219.332 84.4388C219.28 84.4623 219.224 84.4753 219.167 84.4772C219.11 84.479 219.053 84.4696 219 84.4496C218.946 84.4295 218.897 84.3991 218.856 84.3602C218.814 84.3212 218.781 84.2745 218.757 84.2226C218.734 84.1707 218.721 84.1147 218.719 84.0578C218.717 84.0008 218.727 83.9441 218.747 83.8908C218.767 83.8375 218.797 83.7887 218.836 83.7471C218.875 83.7056 218.922 83.6721 218.974 83.6486C219.226 83.5348 225.208 80.8911 229.244 84.26C229.313 84.3171 229.362 84.3939 229.385 84.48C229.408 84.566 229.404 84.6571 229.374 84.7409C229.343 84.8246 229.288 84.897 229.215 84.948C229.142 84.9991 229.055 85.0264 228.966 85.0263Z" fill="#302626"/>
<path d="M236.91 91.6969C236.335 88.4017 236.211 85.0437 235.511 81.7658C235.211 80.3567 235.077 78.6592 234.152 77.5254C233.238 76.409 231.917 75.6264 230.574 75.1472C228.691 74.4774 226.67 74.3278 224.678 74.1836L219.147 73.7847C215.742 73.5387 212.039 73.1669 209.575 70.8039C208.199 69.4847 207.17 66.8366 205.051 66.919C202.932 67.0014 201.364 68.7877 199.925 70.1828C193.794 76.1358 194.804 87.2311 193.843 90.3669C190.241 85.5575 188.374 78.062 190.518 72.4352C192.662 66.8084 197.075 62.2786 202.144 59.0897C204.195 57.7998 206.388 56.6963 208.737 56.1262C212.326 55.259 216.129 55.672 219.667 56.7407C223.204 57.8095 226.517 59.507 229.791 61.2272C231.501 62.1258 233.232 63.0504 234.615 64.4032C236.038 65.7928 237.029 67.5726 237.821 69.4034C240.529 75.674 237.818 90.4558 236.91 91.6969Z" fill="#232323"/>
<path d="M207.453 108.431H221.806C221.806 108.431 215.058 120.5 207.453 108.431Z" fill="white"/>
<path d="M213.849 103.076C213.025 103.076 212.391 102.845 211.954 102.384C210.849 101.217 211.481 99.0894 211.804 98.2287C212.238 97.0787 212.471 96.1324 212.545 95.2501C212.921 90.7777 211.123 88.0592 211.106 88.0321C211.041 87.9368 211.017 87.8198 211.039 87.7069C211.061 87.5939 211.127 87.4943 211.222 87.4299C211.318 87.3655 211.435 87.3416 211.548 87.3635C211.661 87.3853 211.76 87.4512 211.825 87.5465C211.906 87.6668 213.81 90.549 213.409 95.3227C213.329 96.2874 213.076 97.3074 212.616 98.5333C212.189 99.6715 211.956 101.125 212.584 101.785C213.094 102.327 214.195 102.349 215.768 101.856C215.822 101.837 215.88 101.83 215.938 101.834C215.995 101.839 216.051 101.854 216.102 101.88C216.154 101.907 216.199 101.943 216.237 101.987C216.274 102.031 216.302 102.082 216.319 102.137C216.337 102.192 216.343 102.249 216.337 102.307C216.332 102.364 216.315 102.42 216.288 102.471C216.261 102.522 216.224 102.567 216.179 102.603C216.135 102.639 216.083 102.666 216.028 102.683C215.194 102.945 214.466 103.076 213.849 103.076Z" fill="#302626"/>
<path d="M198.701 85.01C198.606 85.0103 198.513 84.9795 198.438 84.9222C198.362 84.8648 198.307 84.7843 198.282 84.6928C198.256 84.6014 198.261 84.5041 198.296 84.4159C198.332 84.3277 198.395 84.2535 198.476 84.2047C201.313 82.504 203.988 82.492 205.734 82.7815C207.628 83.0958 208.844 83.8112 208.895 83.8405C208.992 83.9001 209.062 83.9954 209.089 84.1058C209.116 84.2162 209.099 84.3329 209.041 84.4307C208.983 84.5285 208.889 84.5996 208.779 84.6287C208.669 84.6578 208.552 84.6425 208.453 84.5862C207.548 84.1082 206.569 83.7854 205.558 83.6313C203.239 83.2551 201.003 83.6985 198.923 84.9483C198.856 84.989 198.779 85.0103 198.701 85.01Z" fill="#302626"/>
<path d="M194.352 145.662C194.352 145.662 213.113 164.267 232.186 147.446C232.553 147.555 261.312 153.517 272.017 162.809C271.129 166.603 261.912 252.352 269.962 296.064C262.171 300.183 217.367 321.512 161.736 301.376C163.664 253.479 163.651 193.089 150.016 163.823C153.031 161.701 169.276 148.867 194.352 145.662Z" fill="#C7B5B3"/>
<path d="M215.379 154.404C212.537 154.404 209.575 153.894 206.531 152.879C199.355 150.486 194.132 146.036 194.079 145.991C194.035 145.954 193.998 145.909 193.971 145.858C193.945 145.807 193.928 145.751 193.923 145.693C193.919 145.636 193.925 145.578 193.943 145.523C193.961 145.468 193.989 145.417 194.027 145.373C194.065 145.33 194.111 145.294 194.162 145.268C194.214 145.242 194.27 145.227 194.328 145.224C194.386 145.22 194.443 145.228 194.498 145.247C194.552 145.266 194.603 145.295 194.646 145.334C194.697 145.377 199.81 149.729 206.83 152.065C216.179 155.174 224.301 153.421 230.974 146.856C231.056 146.778 231.166 146.736 231.279 146.739C231.392 146.741 231.5 146.787 231.58 146.868C231.659 146.949 231.704 147.057 231.704 147.17C231.705 147.283 231.661 147.392 231.582 147.474C227.773 151.222 223.423 153.475 218.651 154.17C217.568 154.327 216.474 154.405 215.379 154.404Z" fill="#302626"/>
<path d="M160.962 224.248C160.852 224.249 160.747 224.208 160.666 224.134C160.586 224.059 160.536 223.958 160.528 223.848C159.303 208.285 157.354 197.617 154.738 192.152C154.711 192.1 154.694 192.043 154.689 191.985C154.684 191.927 154.691 191.868 154.709 191.813C154.728 191.757 154.757 191.706 154.796 191.662C154.834 191.618 154.881 191.582 154.934 191.557C154.987 191.532 155.044 191.518 155.103 191.515C155.161 191.513 155.219 191.522 155.274 191.542C155.329 191.563 155.379 191.595 155.421 191.635C155.463 191.675 155.497 191.724 155.52 191.778C158.183 197.343 160.158 208.11 161.392 223.781C161.401 223.896 161.364 224.009 161.29 224.097C161.215 224.184 161.109 224.238 160.994 224.247L160.962 224.248Z" fill="#302626"/>
<path d="M266.254 242.616C266.139 242.616 266.029 242.57 265.947 242.489C265.866 242.408 265.82 242.297 265.82 242.182C265.82 241.799 265.752 203.627 269.576 186.399C269.602 186.288 269.671 186.192 269.767 186.131C269.864 186.071 269.98 186.051 270.092 186.075C270.203 186.1 270.3 186.167 270.362 186.263C270.424 186.359 270.446 186.475 270.423 186.587C266.62 203.722 266.687 241.798 266.688 242.18C266.688 242.295 266.642 242.405 266.561 242.487C266.48 242.568 266.369 242.614 266.254 242.614V242.616Z" fill="#302626"/>
<path d="M147.139 287.45C147.139 287.45 168.563 289.756 176.122 292.767C175.929 292.822 162.436 310.948 155.359 315.308C150.871 313.697 147.015 314.007 140.047 304.611C141.45 302.306 147.139 287.45 147.139 287.45Z" fill="#F79B79"/>
<path d="M174.735 329.643C176.214 327.889 170.792 320.863 165.833 315.128C165.833 315.112 165.823 315.098 165.819 315.084C165.482 314.037 166.615 313.117 167.59 313.625C168.464 314.083 169.149 314.459 169.126 314.506C185.083 324.992 189.052 325.388 190.164 323.72C190.518 322.942 189.741 321.715 188.31 320.268C191.08 321.452 192.285 321.199 192.864 320.432C194.392 317.527 180.502 307.055 175.252 303.241C175.177 303.187 175.116 303.116 175.075 303.033C175.034 302.95 175.014 302.858 175.017 302.766C175.019 302.673 175.044 302.583 175.09 302.503C175.136 302.422 175.2 302.354 175.278 302.304L175.289 302.298C175.381 302.242 175.486 302.212 175.594 302.212C175.701 302.212 175.807 302.242 175.898 302.298C189.43 310.753 195.568 312.852 196.762 311.261C198.641 307.684 176.123 292.767 176.123 292.767L155.359 315.308L160.022 318.502C170.116 329.71 173.347 330.836 174.735 329.643Z" fill="#F79B79"/>
<path d="M188.309 320.7C188.213 320.7 188.12 320.669 188.044 320.61L170.982 307.48C170.891 307.41 170.831 307.307 170.816 307.193C170.801 307.079 170.832 306.963 170.903 306.872C170.973 306.781 171.076 306.722 171.19 306.707C171.304 306.692 171.42 306.723 171.511 306.793L188.578 319.923C188.649 319.978 188.702 320.054 188.728 320.141C188.754 320.228 188.753 320.321 188.724 320.406C188.695 320.492 188.639 320.566 188.566 320.619C188.492 320.672 188.404 320.7 188.313 320.7H188.309Z" fill="#302626"/>
<path d="M126.004 240.653C125.937 240.653 125.871 240.637 125.811 240.607L113.054 234.269C112.95 234.218 112.872 234.128 112.835 234.019C112.798 233.91 112.807 233.791 112.858 233.688C112.909 233.585 112.999 233.506 113.108 233.47C113.217 233.433 113.336 233.441 113.44 233.492L126.195 239.827C126.283 239.87 126.353 239.942 126.395 240.031C126.437 240.119 126.448 240.22 126.426 240.315C126.403 240.411 126.349 240.496 126.272 240.556C126.195 240.617 126.1 240.65 126.002 240.65L126.004 240.653Z" fill="#302626"/>
<path d="M237.502 77.856C237.429 77.8555 237.357 77.8365 237.293 77.8007C234.173 76.0664 230.338 76.0967 227.724 76.2658C226.741 76.3298 225.736 76.4263 224.766 76.5206C222.427 76.7449 220.007 76.978 217.609 76.7818C213.637 76.4566 210.324 74.8307 208.519 72.3257C207.832 71.3729 207.355 70.2987 206.892 69.2603C206.71 68.8516 206.522 68.43 206.326 68.0246C205.486 66.2903 204.585 65.2226 203.489 64.6535C203.39 64.5988 203.317 64.5077 203.284 64.3996C203.251 64.2915 203.262 64.1749 203.314 64.0746C203.366 63.9744 203.455 63.8983 203.563 63.8627C203.67 63.8271 203.787 63.8347 203.888 63.8839C205.556 64.7511 206.524 66.4464 207.107 67.6463C207.309 68.0636 207.5 68.4929 207.685 68.908C208.149 69.9519 208.588 70.9382 209.223 71.8195C210.879 74.1185 213.961 75.6133 217.681 75.9168C220 76.1076 222.38 75.8789 224.681 75.6567C225.657 75.5624 226.669 75.4659 227.667 75.4008C230.39 75.2242 234.39 75.2025 237.713 77.043C237.797 77.0896 237.863 77.1629 237.901 77.2514C237.939 77.3398 237.947 77.4384 237.923 77.5315C237.898 77.6247 237.844 77.7071 237.767 77.7659C237.691 77.8246 237.598 77.8563 237.501 77.856H237.502Z" fill="#302626"/>
<path d="M150.02 290.767C149.921 290.767 149.824 290.733 149.747 290.671C149.67 290.608 149.616 290.521 149.596 290.424C149.575 290.327 149.588 290.226 149.633 290.137C149.678 290.049 149.752 289.978 149.842 289.938L154.589 287.803C154.641 287.78 154.697 287.767 154.754 287.766C154.811 287.764 154.867 287.773 154.921 287.794C154.974 287.814 155.023 287.844 155.064 287.883C155.106 287.923 155.139 287.969 155.162 288.021C155.186 288.073 155.199 288.129 155.2 288.186C155.202 288.243 155.193 288.3 155.172 288.353C155.152 288.406 155.122 288.455 155.082 288.497C155.043 288.538 154.996 288.571 154.944 288.595L150.198 290.729C150.142 290.754 150.081 290.767 150.02 290.767Z" fill="#302626"/>
<path d="M114.934 279.919C114.87 279.919 114.807 279.905 114.749 279.878C114.691 279.851 114.64 279.811 114.599 279.762C107.18 270.793 100.03 261.415 93.344 251.887C93.278 251.793 93.2522 251.676 93.2722 251.563C93.2923 251.449 93.3565 251.349 93.4509 251.283C93.5452 251.217 93.6619 251.191 93.7753 251.211C93.8886 251.231 93.9894 251.295 94.0554 251.389C100.725 260.899 107.861 270.259 115.266 279.209C115.339 279.298 115.374 279.412 115.363 279.526C115.352 279.641 115.296 279.746 115.207 279.819C115.13 279.883 115.034 279.918 114.934 279.919Z" fill="#302626"/>
<path d="M314.478 230.824C315.939 236.064 316.706 241.657 315.395 246.936C314.084 252.216 310.385 257.132 305.192 258.763C302.229 259.695 299.017 259.516 295.975 258.88C292.486 258.151 289.066 256.8 286.332 254.514C283.598 252.228 281.603 248.936 281.344 245.382L314.478 230.824Z" fill="#F79B79"/>
<path d="M287.821 165.939C287.821 165.939 269.457 174.213 273.419 178.043C284.892 189.125 265.937 260.406 298.411 256.473C308.221 255.221 317.194 248.715 315.124 233.37C313.307 219.891 302.058 199.943 287.821 165.939Z" fill="#F79374"/>
<path d="M289.276 171.892C288.492 172.757 287.623 173.54 286.681 174.23C284.635 175.73 280.569 184.354 278.093 184.902C275.979 185.37 278.343 179.699 272.381 179.127C268.393 178.741 268.425 177.521 263.621 176.38C262.133 176.027 261.126 176.076 260.017 175.69C257.073 174.666 256.222 173.405 256.898 171.218C257.374 169.684 258.54 170.105 259.4 169.939C257.924 169.701 255.646 168.051 255.704 166.559C255.763 165.066 257.051 163.721 258.54 163.598C257.207 162.863 255.812 161.398 255.916 159.88C256.02 158.363 258.085 157.712 259.501 157.171C258.454 156.541 257.692 154.195 258.199 153.083C258.707 151.971 259.835 151.24 261.019 150.94C262.254 150.627 263.581 150.604 264.831 150.506C266.132 150.398 267.423 150.959 268.76 150.913C270.169 150.864 271.624 150.339 272.476 149.22C273.249 148.203 273.422 146.859 273.464 145.582C273.537 143.437 273.32 141.279 273.584 139.15C273.849 137.021 274.018 136.713 275.536 134.953C276.754 133.544 278.239 132.757 279.966 133.466C282.171 134.372 281.67 135.062 281.447 135.785C280.394 139.207 280.471 140.841 280.885 143.981C281.054 145.263 283.88 150.191 285.079 152.03C286.541 154.272 286.83 156.123 287.192 157.171C290.769 167.549 290.255 166.04 289.276 171.892Z" fill="#F79374"/>
<path d="M267.133 177.942C267.079 177.942 267.026 177.932 266.976 177.913C264.721 177.033 262.367 176.431 259.966 176.12H259.951C257.086 175.644 255.867 173.915 255.929 172.411C255.968 171.474 256.535 170.489 257.696 169.935C255.911 169.199 255.557 167.93 255.492 167.334C255.347 165.991 256.136 164.571 257.411 163.709C256.773 163.411 256.241 162.925 255.886 162.317C255.531 161.709 255.37 161.007 255.424 160.305C255.485 159.539 255.776 158.81 256.26 158.213C256.744 157.616 257.398 157.181 258.136 156.963C257.593 156.436 257.284 155.628 257.289 154.66C257.295 152.908 258.373 150.984 260.412 150.689C262.941 150.233 264.85 150.399 266.696 150.56C267.84 150.659 268.921 150.752 270.083 150.687C270.198 150.681 270.311 150.72 270.397 150.797C270.482 150.874 270.534 150.982 270.541 151.097C270.547 151.212 270.508 151.324 270.431 151.41C270.354 151.496 270.246 151.548 270.131 151.555C268.908 151.623 267.797 151.526 266.621 151.425C264.83 151.27 262.977 151.108 260.558 151.545H260.542C258.982 151.762 258.162 153.279 258.156 154.662C258.156 155.566 258.522 156.59 259.566 156.748C259.681 156.755 259.789 156.807 259.865 156.893C259.941 156.979 259.981 157.092 259.974 157.207C259.967 157.322 259.914 157.43 259.828 157.506C259.742 157.583 259.629 157.622 259.514 157.615C257.412 157.676 256.379 159.042 256.287 160.369C256.204 161.562 256.892 162.891 258.614 163.182C258.707 163.198 258.793 163.245 258.858 163.314C258.923 163.384 258.963 163.473 258.972 163.567C258.981 163.662 258.959 163.757 258.909 163.838C258.859 163.919 258.784 163.981 258.695 164.015C257.246 164.565 256.216 165.985 256.352 167.246C256.479 168.429 257.585 169.237 259.465 169.522C259.57 169.538 259.665 169.592 259.733 169.674C259.801 169.756 259.837 169.859 259.833 169.965C259.829 170.072 259.787 170.173 259.714 170.25C259.64 170.326 259.542 170.374 259.436 170.383C257.877 170.511 256.84 171.325 256.792 172.457C256.744 173.59 257.745 174.882 260.082 175.276C262.549 175.596 264.969 176.215 267.287 177.118C267.381 177.155 267.46 177.223 267.509 177.312C267.559 177.4 267.575 177.503 267.557 177.603C267.538 177.702 267.485 177.792 267.407 177.857C267.329 177.921 267.231 177.956 267.13 177.956L267.133 177.942Z" fill="#302626"/>
<path d="M268.524 158.533H268.48L259.454 157.604C259.397 157.598 259.342 157.581 259.291 157.554C259.241 157.527 259.197 157.49 259.16 157.446C259.124 157.401 259.097 157.35 259.081 157.295C259.064 157.241 259.059 157.183 259.065 157.126C259.071 157.069 259.088 157.014 259.115 156.963C259.142 156.913 259.179 156.869 259.223 156.832C259.268 156.796 259.319 156.769 259.374 156.753C259.428 156.736 259.486 156.731 259.543 156.737L268.569 157.665C268.684 157.671 268.792 157.722 268.869 157.807C268.946 157.893 268.986 158.006 268.98 158.121C268.974 158.236 268.923 158.343 268.837 158.421C268.752 158.498 268.639 158.538 268.524 158.532V158.533Z" fill="#302626"/>
<path d="M267.133 165.331C267.111 165.332 267.089 165.332 267.067 165.331L258.478 164.03C258.364 164.013 258.262 163.951 258.194 163.858C258.126 163.766 258.097 163.65 258.114 163.536C258.132 163.422 258.193 163.32 258.286 163.252C258.379 163.184 258.494 163.155 258.608 163.172L267.197 164.473C267.312 164.482 267.419 164.535 267.494 164.623C267.57 164.71 267.607 164.824 267.599 164.939C267.59 165.054 267.536 165.161 267.449 165.236C267.362 165.311 267.248 165.349 267.133 165.34V165.331Z" fill="#302626"/>
<path d="M269.786 171.943C269.765 171.944 269.743 171.944 269.721 171.943L259.337 170.375C259.28 170.368 259.225 170.349 259.175 170.32C259.126 170.29 259.082 170.252 259.048 170.206C259.013 170.16 258.988 170.107 258.974 170.052C258.96 169.996 258.957 169.938 258.966 169.881C258.974 169.824 258.994 169.77 259.024 169.72C259.054 169.671 259.093 169.628 259.14 169.595C259.186 169.561 259.239 169.537 259.295 169.523C259.351 169.51 259.409 169.508 259.466 169.518L269.852 171.084C269.967 171.093 270.073 171.147 270.149 171.234C270.224 171.321 270.261 171.435 270.253 171.55C270.244 171.665 270.19 171.772 270.103 171.847C270.015 171.922 269.901 171.96 269.786 171.951V171.943Z" fill="#302626"/>
<path d="M273.489 141.238H273.461C273.404 141.234 273.349 141.219 273.297 141.194C273.246 141.169 273.2 141.134 273.163 141.091C273.125 141.049 273.096 140.999 273.078 140.945C273.059 140.891 273.052 140.834 273.056 140.777C273.11 139.685 273.305 138.605 273.638 137.564C274.2 135.885 275.221 134.397 276.586 133.27C277.507 132.511 279.679 132.216 280.986 133.486C281.028 133.526 281.062 133.573 281.086 133.626C281.109 133.679 281.122 133.736 281.124 133.793C281.125 133.851 281.115 133.909 281.094 133.962C281.072 134.016 281.041 134.065 281 134.106C280.96 134.148 280.912 134.18 280.858 134.203C280.805 134.225 280.748 134.237 280.69 134.237C280.632 134.237 280.575 134.225 280.522 134.203C280.468 134.18 280.42 134.148 280.38 134.106C279.429 133.178 277.8 133.387 277.14 133.933C275.904 134.962 274.976 136.312 274.46 137.835C274.15 138.805 273.968 139.811 273.918 140.828C273.912 140.938 273.864 141.041 273.785 141.117C273.705 141.193 273.599 141.236 273.489 141.238Z" fill="#302626"/>
<path d="M287.738 175.508C287.66 175.508 287.584 175.487 287.517 175.447C287.45 175.407 287.395 175.351 287.358 175.282C287.321 175.214 287.302 175.137 287.305 175.06C287.307 174.982 287.331 174.907 287.373 174.841C289.398 171.665 289.925 167.253 288.817 162.731C288.804 162.676 288.801 162.618 288.81 162.562C288.818 162.506 288.838 162.452 288.867 162.403C288.897 162.354 288.936 162.312 288.982 162.278C289.027 162.244 289.08 162.22 289.135 162.207C289.19 162.193 289.248 162.19 289.304 162.199C289.36 162.208 289.414 162.227 289.463 162.257C289.512 162.286 289.554 162.325 289.588 162.371C289.622 162.417 289.646 162.469 289.66 162.524C290.824 167.274 290.257 171.933 288.105 175.307C288.065 175.369 288.011 175.419 287.947 175.454C287.883 175.489 287.811 175.508 287.738 175.508Z" fill="#302626"/>
<path d="M289.597 257.604C289.515 257.604 289.435 257.581 289.366 257.538C285.568 255.141 282.464 251.79 280.365 247.821C279.555 246.286 278.91 244.688 278.319 243.184C276.748 239.181 275.283 235.076 273.958 230.985C273.941 230.931 273.934 230.874 273.939 230.817C273.943 230.76 273.959 230.705 273.985 230.654C274.011 230.603 274.047 230.558 274.09 230.521C274.134 230.484 274.184 230.456 274.238 230.439C274.293 230.421 274.35 230.415 274.407 230.419C274.463 230.424 274.519 230.44 274.569 230.466C274.62 230.492 274.665 230.527 274.702 230.571C274.739 230.614 274.767 230.664 274.785 230.718C276.1 234.793 277.562 238.88 279.123 242.866C279.705 244.349 280.338 245.921 281.128 247.419C283.154 251.254 286.151 254.491 289.819 256.807C289.899 256.857 289.96 256.932 289.993 257.019C290.026 257.107 290.03 257.203 290.004 257.294C289.978 257.384 289.923 257.463 289.848 257.52C289.773 257.576 289.682 257.607 289.588 257.607L289.597 257.604Z" fill="#302626"/>
<path d="M185.863 59.6089C191.478 53.9958 191.478 44.8953 185.863 39.2822C180.247 33.6692 171.143 33.6692 165.527 39.2822C159.912 44.8953 159.912 53.9958 165.527 59.6089C171.143 65.222 180.247 65.2219 185.863 59.6089Z" fill="#E39A50"/>
<path d="M341.642 298.6C347.804 298.6 352.8 293.606 352.8 287.447C352.8 281.287 347.804 276.294 341.642 276.294C335.48 276.294 330.484 281.287 330.484 287.447C330.484 293.606 335.48 298.6 341.642 298.6Z" fill="#E39A50"/>
<path d="M154.165 344.223C160.267 338.123 160.267 328.233 154.165 322.133C148.062 316.033 138.168 316.033 132.065 322.133C125.963 328.233 125.963 338.123 132.065 344.223C138.168 350.323 148.062 350.323 154.165 344.223Z" fill="#E39A50"/>
<path d="M109.872 174.831C113.286 171.419 113.286 165.886 109.872 162.474C106.458 159.062 100.923 159.062 97.5093 162.474C94.0956 165.886 94.0955 171.419 97.5093 174.831C100.923 178.243 106.458 178.243 109.872 174.831Z" fill="#E39A50"/>
<path d="M254.202 141.425C259.03 141.425 262.944 137.513 262.944 132.687C262.944 127.862 259.03 123.95 254.202 123.95C249.375 123.95 245.461 127.862 245.461 132.687C245.461 137.513 249.375 141.425 254.202 141.425Z" fill="#E39A50"/>
</g>
<defs>
<clipPath id="clip0_85_50527">
<rect width="447" height="419" fill="white"/>
</clipPath>
</defs>
</svg>
