<svg width="21" height="21" viewBox="0 0 21 21" fill="none" xmlns="http://www.w3.org/2000/svg">
<path d="M17.6328 5.25003C17.5436 4.93021 17.3747 4.63826 17.1419 4.4015L14.6298 1.88937C14.393 1.65659 14.1011 1.4877 13.7812 1.3985V3.93753C13.7812 4.28563 13.9195 4.61947 14.1657 4.86561C14.4118 5.11175 14.7457 5.25003 15.0938 5.25003H17.6328Z" fill="#768C88"/>
<path d="M15.0938 6.5625C14.3976 6.5625 13.7299 6.28594 13.2376 5.79366C12.7453 5.30137 12.4688 4.63369 12.4688 3.9375V1.3125H6.5625C5.69226 1.3125 4.85766 1.6582 4.24231 2.27356C3.62695 2.88891 3.28125 3.72351 3.28125 4.59375V16.4062C3.28125 17.2765 3.62695 18.1111 4.24231 18.7264C4.85766 19.3418 5.69226 19.6875 6.5625 19.6875H14.4375C15.3077 19.6875 16.1423 19.3418 16.7577 18.7264C17.373 18.1111 17.7188 17.2765 17.7188 16.4062V6.5625H15.0938ZM7.21875 6.5625H9.84375C10.0178 6.5625 10.1847 6.63164 10.3078 6.75471C10.4309 6.87778 10.5 7.0447 10.5 7.21875C10.5 7.3928 10.4309 7.55972 10.3078 7.68279C10.1847 7.80586 10.0178 7.875 9.84375 7.875H7.21875C7.0447 7.875 6.87778 7.80586 6.75471 7.68279C6.63164 7.55972 6.5625 7.3928 6.5625 7.21875C6.5625 7.0447 6.63164 6.87778 6.75471 6.75471C6.87778 6.63164 7.0447 6.5625 7.21875 6.5625ZM12.4688 15.75H7.21875C7.0447 15.75 6.87778 15.6809 6.75471 15.5578C6.63164 15.4347 6.5625 15.2678 6.5625 15.0938C6.5625 14.9197 6.63164 14.7528 6.75471 14.6297C6.87778 14.5066 7.0447 14.4375 7.21875 14.4375H12.4688C12.6428 14.4375 12.8097 14.5066 12.9328 14.6297C13.0559 14.7528 13.125 14.9197 13.125 15.0938C13.125 15.2678 13.0559 15.4347 12.9328 15.5578C12.8097 15.6809 12.6428 15.75 12.4688 15.75ZM13.7812 13.125H7.21875C7.0447 13.125 6.87778 13.0559 6.75471 12.9328C6.63164 12.8097 6.5625 12.6428 6.5625 12.4688C6.5625 12.2947 6.63164 12.1278 6.75471 12.0047C6.87778 11.8816 7.0447 11.8125 7.21875 11.8125H13.7812C13.9553 11.8125 14.1222 11.8816 14.2453 12.0047C14.3684 12.1278 14.4375 12.2947 14.4375 12.4688C14.4375 12.6428 14.3684 12.8097 14.2453 12.9328C14.1222 13.0559 13.9553 13.125 13.7812 13.125ZM13.7812 10.5H7.21875C7.0447 10.5 6.87778 10.4309 6.75471 10.3078C6.63164 10.1847 6.5625 10.0178 6.5625 9.84375C6.5625 9.6697 6.63164 9.50278 6.75471 9.37971C6.87778 9.25664 7.0447 9.1875 7.21875 9.1875H13.7812C13.9553 9.1875 14.1222 9.25664 14.2453 9.37971C14.3684 9.50278 14.4375 9.6697 14.4375 9.84375C14.4375 10.0178 14.3684 10.1847 14.2453 10.3078C14.1222 10.4309 13.9553 10.5 13.7812 10.5Z" fill="#768C88"/>
</svg>
