<svg width="29" height="29" viewBox="0 0 23 22" fill="none" xmlns="http://www.w3.org/2000/svg">
    <rect x="0.5" y="0.5" width="22" height="21" rx="10.5" stroke="#264642" />
    <g clip-path="url(#clip0_70_40912)">
        <path
            d="M15.5692 13.4723C15.4604 13.3682 15.3309 13.2882 15.1891 13.2374C15.0474 13.1866 14.8965 13.1662 14.7464 13.1775C14.5962 13.1888 14.4501 13.2316 14.3176 13.303C14.185 13.3744 14.069 13.4729 13.977 13.5921C13.822 13.7478 13.6186 13.846 13.4003 13.8706C13.1821 13.8951 12.9619 13.8444 12.7763 13.7269C12.104 13.301 11.4785 12.8053 10.9101 12.2481C10.2883 11.6383 9.73954 10.9582 9.27507 10.2214C9.1575 10.0368 9.10695 9.81742 9.13188 9.6C9.15682 9.38259 9.25573 9.18035 9.41204 9.02718C9.54079 8.92399 9.64542 8.7939 9.71862 8.64603C9.79181 8.49816 9.8318 8.33607 9.83577 8.17112C9.83599 8.03426 9.80905 7.89873 9.75652 7.77235C9.70399 7.64598 9.62691 7.53129 9.52974 7.43492L8.46395 6.36913C8.26844 6.17436 8.00371 6.065 7.72774 6.065C7.45177 6.065 7.18704 6.17436 6.99153 6.36913L6.55923 6.80144C6.14497 7.21476 5.88596 7.75832 5.82592 8.34042C5.76588 8.92251 5.90848 9.5075 6.22965 9.99667C7.1242 11.3425 8.15085 12.5957 9.29433 13.7376C10.4197 14.8594 11.6518 15.8686 12.9732 16.751C13.4645 17.0799 14.0544 17.2289 14.6429 17.1727C15.2315 17.1166 15.7825 16.8587 16.2027 16.4428C16.5113 16.13 16.9726 15.7654 16.9389 15.2742C16.9391 15.1374 16.9122 15.0019 16.8597 14.8755C16.8071 14.7491 16.73 14.6344 16.6329 14.538L15.5692 13.4723Z"
            fill="#264642" />
        <path
            d="M15.5057 7.49686C14.9741 6.9623 14.3417 6.53849 13.6452 6.24997C12.9488 5.96145 12.202 5.81395 11.4481 5.816C11.3917 5.8166 11.3379 5.83941 11.2982 5.87948C11.2586 5.91955 11.2363 5.97365 11.2363 6.03001C11.2363 6.08638 11.2586 6.14047 11.2982 6.18054C11.3379 6.22061 11.3917 6.24343 11.4481 6.24403C14.3025 6.18488 16.8181 8.70105 16.7586 11.5553C16.7594 11.6116 16.7823 11.6652 16.8224 11.7047C16.8624 11.7442 16.9164 11.7663 16.9726 11.7663C17.0289 11.7663 17.0828 11.7441 17.1229 11.7047C17.1629 11.6652 17.1858 11.6115 17.1866 11.5553C17.1888 10.8013 17.0413 10.0543 16.7527 9.35766C16.4642 8.66103 16.0403 8.02855 15.5057 7.49686Z"
            fill="#264642" />
        <path
            d="M11.2344 9.54597C11.2344 9.60273 11.2569 9.65717 11.2971 9.6973C11.3372 9.73744 11.3916 9.75999 11.4484 9.75999C11.9237 9.76228 12.379 9.95213 12.7151 10.2883C13.0512 10.6244 13.2411 11.0796 13.2434 11.555C13.2435 11.6116 13.2662 11.6659 13.3063 11.7059C13.3464 11.7459 13.4007 11.7683 13.4574 11.7683C13.514 11.7683 13.5684 11.7459 13.6085 11.7059C13.6486 11.6659 13.6712 11.6116 13.6714 11.555C13.6713 10.9654 13.4371 10.4 13.0202 9.98316C12.6033 9.56628 12.038 9.33205 11.4484 9.33197C11.3916 9.33197 11.3372 9.35452 11.2971 9.39465C11.2569 9.43478 11.2344 9.48922 11.2344 9.54597Z"
            fill="#264642" />
        <path
            d="M15.0021 11.5552C15.003 11.6114 15.0259 11.665 15.066 11.7044C15.106 11.7438 15.16 11.7659 15.2161 11.7659C15.2723 11.7659 15.3263 11.7438 15.3663 11.7044C15.4064 11.665 15.4293 11.6114 15.4302 11.5552C15.4743 9.41516 13.589 7.52977 11.4489 7.57401C11.3927 7.57489 11.3392 7.59783 11.2998 7.63787C11.2604 7.67791 11.2383 7.73184 11.2383 7.78802C11.2383 7.8442 11.2604 7.89812 11.2998 7.93815C11.3392 7.97818 11.3928 8.00111 11.449 8.00199C12.39 8.00637 13.2912 8.38213 13.9566 9.04754C14.622 9.71294 14.9978 10.6142 15.0021 11.5552Z"
            fill="#264642" />
    </g>
    <defs>
        <clipPath id="clip0_70_40912">
            <rect width="13" height="13" fill="white" transform="translate(5 5)" />
        </clipPath>
    </defs>
</svg>