<svg width="17" height="17" viewBox="0 0 17 17" fill="none" xmlns="http://www.w3.org/2000/svg">
<g clip-path="url(#clip0_73_41063)">
<path d="M15.853 12.2449C15.8083 12.0413 15.7085 11.854 15.5646 11.7033C15.4206 11.5526 15.2381 11.4443 15.0369 11.3902L11.1639 10.4123L9.17517 11.9068L9.14802 10.9276L9.28402 10.0718H7.71553L7.85066 10.9172L7.82353 11.9061L5.8357 10.4123L1.96269 11.3902C1.76145 11.4443 1.57892 11.5526 1.435 11.7033C1.29108 11.854 1.19129 12.0413 1.14651 12.2449L0.977136 16.2719C0.974157 16.3276 0.982811 16.3833 1.00255 16.4356C1.02229 16.4878 1.05267 16.5353 1.09178 16.5751C1.13089 16.615 1.17786 16.6462 1.2297 16.6669C1.28154 16.6876 1.33713 16.6973 1.39291 16.6953L8.49981 16.626L15.6067 16.6953C15.6625 16.6973 15.718 16.6876 15.7699 16.6669C15.8217 16.6462 15.8687 16.615 15.9078 16.5751C15.9469 16.5353 15.9773 16.4878 15.997 16.4356C16.0167 16.3833 16.0254 16.3276 16.0224 16.2719L15.853 12.2449Z" fill="#768C88"/>
<path d="M8.09484 8.84301C8.22591 8.85138 8.84859 8.85386 9.01313 8.83263C10.848 8.5957 11.8654 5.37537 11.8654 3.66974C11.8654 2.77721 11.5108 1.92123 10.8797 1.29011C10.2486 0.659 9.39259 0.304443 8.50006 0.304443C7.60753 0.304443 6.75155 0.659 6.12044 1.29011C5.48932 1.92123 5.13477 2.77721 5.13477 3.66974C5.13477 5.40843 6.19203 8.72133 8.09484 8.84301Z" fill="#768C88"/>
</g>
<defs>
<clipPath id="clip0_73_41063">
<rect width="17" height="17" fill="white"/>
</clipPath>
</defs>
</svg>
