<svg width="26" height="29" viewBox="0 0 26 29" fill="none" xmlns="http://www.w3.org/2000/svg">
<g clip-path="url(#clip0_71_41049)">
<path fill-rule="evenodd" clip-rule="evenodd" d="M21.6667 20.416C20.5689 20.416 19.5867 20.851 18.8356 21.5325L8.53667 15.515C8.60889 15.1815 8.66667 14.848 8.66667 14.5C8.66667 14.152 8.60889 13.8185 8.53667 13.485L18.72 7.5255C19.5 8.2505 20.5256 8.7 21.6667 8.7C24.0644 8.7 26 6.757 26 4.35C26 1.943 24.0644 0 21.6667 0C19.2689 0 17.3333 1.943 17.3333 4.35C17.3333 4.698 17.3911 5.0315 17.4633 5.365L7.28 11.3245C6.5 10.5995 5.47444 10.15 4.33333 10.15C1.93556 10.15 0 12.093 0 14.5C0 16.907 1.93556 18.85 4.33333 18.85C5.47444 18.85 6.5 18.4005 7.28 17.6755L17.5644 23.7075C17.4922 24.012 17.4489 24.331 17.4489 24.65C17.4489 26.9845 19.3411 28.884 21.6667 28.884C23.9922 28.884 25.8844 26.9845 25.8844 24.65C25.8844 22.3155 23.9922 20.416 21.6667 20.416Z" fill="#264642"/>
</g>
<defs>
<clipPath id="clip0_71_41049">
<rect width="26" height="29" fill="white"/>
</clipPath>
</defs>
</svg>
