<svg width="29" height="29" viewBox="0 0 29 29" fill="none" xmlns="http://www.w3.org/2000/svg">
<path fill-rule="evenodd" clip-rule="evenodd" d="M14.5 27.1875C21.5071 27.1875 27.1875 21.5071 27.1875 14.5C27.1875 7.49288 21.5071 1.8125 14.5 1.8125C7.49288 1.8125 1.8125 7.49288 1.8125 14.5C1.8125 16.9967 2.53367 19.325 3.77905 21.2879L1.8125 27.1875L7.71213 25.2209C9.67501 26.4664 12.0033 27.1875 14.5 27.1875Z" fill="#25D366"/>
<path d="M8.87912 10.565C8.22973 16.0137 12.8895 20.611 17.9024 20.242C19.2357 20.1438 20.2418 18.6327 19.9076 17.6111C19.7888 17.2951 18.5385 16.7538 17.4688 16.4389C17.4287 16.4271 17.3859 16.4438 17.3641 16.4794L16.6012 17.7234C16.58 17.7579 16.5383 17.7746 16.499 17.7646C13.5579 17.0132 12.0701 15.168 11.2372 12.2293C11.226 12.19 11.242 12.1475 11.2765 12.1255L12.521 11.333C12.5428 11.3191 12.5579 11.2972 12.5619 11.2716C12.7082 10.3468 12.2188 8.69885 12.0539 8.58681C11.0513 7.90535 9.08216 8.86165 8.87912 10.565Z" fill="white"/>
</svg>
